<?xml version="1.0" encoding="utf-8"?>
<!-- Generator: Adobe Illustrator 18.1.1, SVG Export Plug-In . SVG Version: 6.00 Build 0)  -->
<!DOCTYPE svg PUBLIC "-//W3C//DTD SVG 1.1//EN" "http://www.w3.org/Graphics/SVG/1.1/DTD/svg11.dtd">
<svg version="1.1" id="Layer_1" xmlns="http://www.w3.org/2000/svg" xmlns:xlink="http://www.w3.org/1999/xlink" x="0px" y="0px"
	 viewBox="0 0 569.4 65" enable-background="new 0 0 569.4 65" xml:space="preserve">
<g>
	<path fill="#231F20" d="M15.1,59h10.4C33.3,59,38,54.3,38,46.7c0-7.7-5.3-13.3-12.5-13.3H15.1V59z M15.1,29.3h9.5
		c6,0,10.3-4.9,10.3-11.8c0-6.5-4-11.3-9.5-11.3H15.1V29.3z M0,63.1v-3.4h7V5.4H0V1.9h28.2c8.4,0,15.3,6.8,15.3,15.2
		c0,7-6.1,13.1-13.6,13.7c3.8,0.5,5.2,0.8,7.5,1.9c5.8,2.7,9.1,8.1,9.1,14.4c0,9.1-7,15.9-16.5,15.9H0z"/>
	<path fill="#231F20" d="M71,31.4h8.9c7,0,12-5.2,12-12.8c0-8-4.4-12.4-12.2-12.4H71V31.4z M109.5,63.1h-7.9c-5.5,0-6.5-0.6-9.6-5.5
		l-13.8-22H71v24h7v3.4H55.9v-3.4h7V5.4h-7V1.9h25.8c9,0,14.1,2.5,16.9,8.2c1.2,2.5,1.9,5.3,1.9,8.3c0,9-5,14.7-13.9,16l13.4,20.6
		c2.2,3.4,3.7,4.5,6,4.5h3.6V63.1z"/>
	<path fill="#231F20" d="M121.2,32.6c0,15.7,8.7,27,20.8,27c11.9,0,20.5-11.4,20.5-27c0-15.6-8.6-26.9-20.4-26.9
		C129.9,5.7,121.2,16.8,121.2,32.6 M112,32.6c0-17.4,13.5-31.8,29.9-31.8c16.1,0,29.7,14.5,29.7,31.7c0,17.2-13.5,31.8-29.7,31.8
		C125.6,64.4,112,49.9,112,32.6"/>
</g>
<path fill="#231F20" d="M200.1,12.5l9.9,26.1h-20.4L200.1,12.5z M200,0l-24.1,59.6H171v3.5h17.7v-3.5h-7.7l6.8-16.7l23.7,0.1
	l6.5,16.7h-7.4v3.4h21.1v-3.5h-5.3L203.3,0H200z"/>
<g>
	<path fill="#231F20" d="M252.7,58.5h11.1c12.7,0,22.3-11.2,22.3-26c0-14.3-9.8-25.9-22.1-25.9h-11.3V58.5z M237.6,63.1v-3.4h7V5.4
		h-7V1.9H265c16.7,0,30.3,13.7,30.3,30.5c0,17.2-13.4,30.7-30.4,30.7H237.6z"/>
</g>
<rect x="312.7" y="1.9" fill="#231F20" width="1.9" height="61.3"/>
<g>
	<path fill="#231F20" d="M361.3,65C341.8,65,329,50.8,329,32.4c0-18.5,13.1-32.2,32-32.2c8.3,0,15.3,2.7,20.6,7.1l-1.4,1.4
		c-4.7-4.4-12.6-6.8-19.3-6.8c-18.1,0-30,13.6-30,30.5c0,16.9,11.3,30.8,30.6,30.8c8.3,0,14.6-1.9,20-4.6V34.6h-15.9v-1.6h17.8v26.8
		C378.6,62.4,370.9,65,361.3,65"/>
	<polygon fill="#231F20" points="444.5,63.2 400.5,4.4 400.3,4.4 400.3,63.2 398.4,63.2 398.4,1.9 401.1,1.9 445.1,60.7 445.4,60.7 
		445.4,1.9 447.3,1.9 447.3,63.2 	"/>
	<rect x="465.7" y="1.9" fill="#231F20" width="1.9" height="61.3"/>
	<polygon fill="#231F20" points="501.1,3.7 501.1,63.2 499.2,63.2 499.2,3.7 478.3,3.7 478.3,1.9 521.9,1.9 521.9,3.7 	"/>
	<polygon fill="#231F20" points="532.3,63.2 532.3,1.9 568,1.9 568,3.7 534.1,3.7 534.1,30.6 566,30.6 566,32.3 534.1,32.3 
		534.1,61.5 569.4,61.5 569.4,63.2 	"/>
</g>
</svg>
