<?xml version="1.0" standalone="no"?>
<!DOCTYPE svg PUBLIC "-//W3C//DTD SVG 1.1//EN" "http://www.w3.org/Graphics/SVG/1.1/DTD/svg11.dtd" >
<svg xmlns="http://www.w3.org/2000/svg">
<metadata></metadata>
<defs>
<font id="gt_walsheim_pro_trialblack" horiz-adv-x="1368" >
<font-face units-per-em="2048" ascent="1536" descent="-512" />
<missing-glyph horiz-adv-x="481" />
<glyph horiz-adv-x="0" />
<glyph horiz-adv-x="682" />
<glyph unicode=" "  horiz-adv-x="481" />
<glyph unicode="&#x09;" horiz-adv-x="481" />
<glyph unicode="&#xa0;" horiz-adv-x="481" />
<glyph unicode="!" horiz-adv-x="663" d="M82 221q0 102 72 174t176 72q106 0 179 -72t73 -174t-73 -174t-179 -72q-104 0 -176 72t-72 174z" />
<glyph unicode="," horiz-adv-x="669" d="M68 219q0 103 70 175.5t171 72.5q124 0 201.5 -87.5t77.5 -227.5q0 -138 -34 -236.5t-101.5 -158t-159 -87t-213.5 -28.5v153q142 0 221 62q64 55 74 139q-5 -7 -25.5 -14t-40.5 -7q-109 0 -175 70.5t-66 173.5z" />
<glyph unicode="-" horiz-adv-x="694" d="M68 483v303h559v-303h-559z" />
<glyph unicode="." horiz-adv-x="663" d="M82 221q0 102 72 174t176 72q106 0 179 -72t73 -174t-73 -174t-179 -72q-104 0 -176 72t-72 174z" />
<glyph unicode="0" horiz-adv-x="1335" d="M78 487v459q0 106 41 201t115 166.5t186.5 113t247.5 41.5q132 0 243.5 -42t186.5 -113t117 -166t42 -201v-459q0 -106 -42 -201t-117 -166t-186.5 -113t-243.5 -42q-135 0 -247.5 41.5t-186.5 113t-115 166.5t-41 201zM504 487q0 -74 45.5 -125t118.5 -51q72 0 117.5 51 t45.5 125v459q0 74 -45.5 125t-117.5 51q-73 0 -118.5 -51t-45.5 -125v-459z" />
<glyph unicode="1" horiz-adv-x="907" d="M59 889v280q109 0 181 16.5t111.5 52t55 82t15.5 114.5h360v-1434h-428v889h-295z" />
<glyph unicode="2" horiz-adv-x="1286" d="M90 0q0 139 18 249t48 185.5t80 138t101.5 103t125.5 84.5q176 103 220 136q85 64 97 132q2 14 2 29q0 62 -33.5 93.5t-86.5 31.5q-140 0 -140 -178h-428q0 71 18.5 136.5t61.5 126t106.5 104.5t160 70.5t216.5 26.5q85 0 162 -14.5t146.5 -48t120 -83t80.5 -124 t30 -166.5q0 -64 -20 -123t-52.5 -106t-80.5 -91.5t-97.5 -78.5t-111.5 -68q-153 -91 -189 -120q-59 -48 -63 -105v-12h606v-328h-1098z" />
<glyph unicode="3" horiz-adv-x="1298" d="M63 485h426q0 -97 40.5 -149.5t117.5 -52.5q68 0 103.5 46t35.5 111q0 77 -39 116.5t-124 39.5h-162v307h160q90 0 125.5 35t35.5 106q0 70 -33 104t-92 34q-78 0 -107.5 -45t-29.5 -133h-426q0 71 14.5 133.5t54 125t100.5 106.5t161.5 71.5t230.5 27.5 q88 0 166.5 -13.5t149 -44.5t121.5 -77t80.5 -115.5t29.5 -156.5q0 -116 -68.5 -206t-160.5 -116q102 -31 171.5 -125t69.5 -225q0 -83 -30 -153t-82 -119.5t-122 -84t-149.5 -51t-164.5 -16.5q-131 0 -234.5 26.5t-172 73t-113 113t-64 142t-19.5 165.5z" />
<glyph unicode="4" horiz-adv-x="1357" d="M102 362v1072h426v-725h195v362h428v-362h149v-347h-149v-362h-428v362h-621z" />
<glyph unicode="5" horiz-adv-x="1357" d="M88 498h406q0 -82 51 -139.5t135 -57.5t135 58t51 145q0 81 -50 139.5t-132 58.5q-122 0 -176 -104h-381v836h1069v-308h-672v-241q39 52 113.5 81t163.5 29q119 0 212 -43.5t148 -115.5t83 -156.5t28 -175.5q0 -112 -39.5 -209.5t-113 -171t-187 -116t-252.5 -42.5 t-252.5 42t-187 115.5t-113 169.5t-39.5 206z" />
<glyph unicode="6" horiz-adv-x="1292" d="M51 506q0 172 84 299l420 629h473l-272 -402q81 -15 141 -49q159 -50 249.5 -180t90.5 -297q0 -110 -40 -207.5t-114 -171t-188 -116t-252 -42.5t-251.5 42.5t-187 116t-113.5 171t-40 207.5zM457 506q0 -85 51.5 -141t134.5 -56t134.5 56t51.5 141t-51.5 140.5 t-134.5 55.5t-134.5 -55.5t-51.5 -140.5z" />
<glyph unicode="7" horiz-adv-x="1193" d="M63 1085v349h1147l-610 -1434h-457l465 1085h-545z" />
<glyph unicode="8" horiz-adv-x="1318" d="M72 403q0 123 77 220t177 118q-90 29 -153.5 116.5t-63.5 195.5q0 180 147 297.5t403 117.5t403.5 -118.5t147.5 -296.5q0 -108 -63.5 -195.5t-153.5 -116.5q103 -28 178.5 -122t75.5 -216q0 -91 -39.5 -170t-112.5 -139t-185.5 -94.5t-250.5 -34.5q-272 0 -429.5 125 t-157.5 313zM477 420q0 -70 49.5 -118t132.5 -48t132 48.5t49 117.5q0 68 -49 117t-132 49q-84 0 -133 -48.5t-49 -117.5zM504 1034q0 -62 42 -104.5t113 -42.5t113.5 43t42.5 104q0 60 -42.5 103t-113.5 43t-113 -42.5t-42 -103.5z" />
<glyph unicode="9" horiz-adv-x="1292" d="M55 928q0 110 40 207t114 170.5t188 116t252 42.5t251.5 -42.5t187 -116t113.5 -170.5t40 -207q0 -169 -86 -299l-418 -629h-473l271 401q-221 29 -350.5 175.5t-129.5 351.5zM463 928q0 -85 51.5 -141t134.5 -56t135 56t52 141t-51.5 140.5t-135.5 55.5 q-83 0 -134.5 -55.5t-51.5 -140.5z" />
<glyph unicode=":" horiz-adv-x="663" d="M82 221q0 102 72 174t176 72q106 0 179 -72t73 -174t-73 -174t-179 -72q-104 0 -176 72t-72 174z" />
<glyph unicode=";" horiz-adv-x="669" d="M68 219q0 103 70 175.5t171 72.5q124 0 201.5 -87.5t77.5 -227.5q0 -138 -34 -236.5t-101.5 -158t-159 -87t-213.5 -28.5v153q142 0 221 62q64 55 74 139q-5 -7 -25.5 -14t-40.5 -7q-109 0 -175 70.5t-66 173.5z" />
<glyph unicode="?" horiz-adv-x="663" d="M82 221q0 102 72 174t176 72q106 0 179 -72t73 -174t-73 -174t-179 -72q-104 0 -176 72t-72 174z" />
<glyph unicode="A" horiz-adv-x="1531" d="M8 0l529 1434h446l541 -1434h-475l-50 166h-481l-49 -166h-461zM608 475h303l-151 529z" />
<glyph unicode="B" d="M106 0v1434h703q113 0 199 -26.5t135.5 -66t80.5 -94t41.5 -102t10.5 -98.5q0 -64 -23 -121.5t-60.5 -97t-80.5 -66t-86 -35.5q37 -3 80 -25.5t84 -61t68.5 -102.5t27.5 -139q0 -41 -8 -82t-26 -88t-53.5 -86.5t-85 -72t-126 -51.5t-170.5 -19h-711zM535 299h145 q90 0 132 41.5t42 105.5q0 24 -8 47.5t-26 46.5t-54 37.5t-86 14.5h-145v-293zM535 870h141q90 0 132 42.5t42 103.5q0 25 -7.5 47.5t-25 45.5t-54 36.5t-87.5 13.5h-141v-289z" />
<glyph unicode="C" horiz-adv-x="1640" d="M53 717q0 119 33.5 231t99.5 207t158 166t216 111.5t265 40.5q169 0 308 -49.5t232.5 -135.5t150 -199t71.5 -245h-446q-20 107 -98 174t-205 67q-164 0 -256.5 -106.5t-92.5 -261.5q0 -161 96.5 -265t260.5 -104q114 0 194 62t101 155h450q-18 -125 -76.5 -233.5 t-152 -192t-228.5 -131t-296 -47.5q-180 0 -330 62t-248.5 166.5t-152.5 241t-54 286.5z" />
<glyph unicode="D" horiz-adv-x="1513" d="M125 0v1434h586q173 0 316.5 -59.5t237 -159.5t144.5 -228.5t51 -269.5t-50.5 -269.5t-143.5 -228.5t-237 -159.5t-318 -59.5h-586zM551 360h129q155 0 249.5 106t94.5 251t-94.5 250.5t-249.5 105.5h-129v-713z" />
<glyph unicode="E" horiz-adv-x="1159" d="M125 0v1434h924v-320h-498v-250h498v-305h-498v-240h498v-319h-924z" />
<glyph unicode="F" horiz-adv-x="1148" d="M125 0v1434h924v-349h-498v-317h498v-336h-498v-432h-426z" />
<glyph unicode="G" horiz-adv-x="1701" d="M55 717q0 118 32.5 229.5t97.5 206.5t155.5 166.5t213 112.5t263.5 41q152 0 282.5 -43t220.5 -116.5t145 -171t65 -206.5h-471q-12 69 -76.5 120.5t-169.5 51.5q-83 0 -147 -33t-101.5 -90t-56.5 -126t-19 -148q0 -176 90.5 -288t260.5 -112q115 0 184.5 56.5 t85.5 146.5h-238v281h807v-281h-137q-41 -255 -227.5 -404t-495.5 -149q-144 0 -268 39t-214 108.5t-154 164t-96 207.5t-32 237z" />
<glyph unicode="H" horiz-adv-x="1503" d="M125 0v1434h426v-545h399v545h428v-1434h-428v535h-399v-535h-426z" />
<glyph unicode="I" horiz-adv-x="679" d="M125 0v1434h430v-1434h-430z" />
<glyph unicode="J" horiz-adv-x="1288" d="M25 522h426q0 -89 39.5 -144.5t113.5 -55.5q73 0 113.5 50.5t40.5 147.5v914h428v-914q0 -555 -582 -555q-145 0 -257.5 42.5t-181.5 118.5t-104.5 176t-35.5 220z" />
<glyph unicode="K" horiz-adv-x="1454" d="M125 0v1434h426v-586l397 586h500l-526 -717l526 -717h-500l-397 584v-584h-426z" />
<glyph unicode="L" horiz-adv-x="976" d="M125 0v1434h426v-1069h375v-365h-801z" />
<glyph unicode="M" horiz-adv-x="1929" d="M125 0v1434h543l303 -926l305 926h528v-1434h-413v889l-261 -889h-315l-276 889v-889h-414z" />
<glyph unicode="N" horiz-adv-x="1579" d="M125 0v1434h434l467 -850v850h428v-1434h-434l-469 821v-821h-426z" />
<glyph unicode="O" horiz-adv-x="1660" d="M53 717q0 119 33 230.5t99 206.5t158 166.5t217 112t269 40.5t270 -40.5t218 -112t158.5 -166.5t99.5 -206.5t33 -230.5t-33 -230.5t-99.5 -206.5t-158.5 -166.5t-218 -112t-270 -40.5t-269 40.5t-217 112t-158 166.5t-99 206.5t-33 230.5zM483 717q0 -150 95 -258.5 t251 -108.5q105 0 186 52.5t121 135t40 179.5t-40 179t-120.5 134.5t-186.5 52.5q-156 0 -251 -108t-95 -258z" />
<glyph unicode="P" horiz-adv-x="1378" d="M125 0v1434h688q159 0 283.5 -73.5t190 -195t65.5 -266.5q0 -144 -65.5 -264.5t-190 -194t-283.5 -73.5h-262v-367h-426zM551 696h176q84 0 137.5 59t53.5 144t-52.5 144t-136.5 59h-178v-406z" />
<glyph unicode="Q" horiz-adv-x="1660" d="M53 717q0 119 33 230.5t99 206.5t158 166.5t217 112t269 40.5t270 -40.5t218 -112t158.5 -166.5t99.5 -206.5t33 -230.5q0 -198 -93.5 -369t-261.5 -268l123 -160q-375 -190 -377 -190l-170 231q-144 0 -269 40.5t-217 112t-158 166.5t-99 206.5t-33 230.5zM483 717 q0 -150 95 -258.5t251 -108.5q105 0 186 52.5t121 135t40 179.5t-40 179t-120.5 134.5t-186.5 52.5q-156 0 -251 -108t-95 -258z" />
<glyph unicode="R" horiz-adv-x="1429" d="M125 0v1434h688q159 0 283.5 -73.5t190 -195t65.5 -266.5q0 -147 -69.5 -270.5t-192.5 -192.5l286 -436h-502l-243 367h-80v-367h-426zM551 696h176q84 0 137.5 59t53.5 144t-52.5 144t-136.5 59h-178v-406z" />
<glyph unicode="S" horiz-adv-x="1318" d="M70 483h426q0 -96 48.5 -149t131.5 -53q65 0 103 32.5t38 89.5q0 56 -46 90t-171 82q-199 77 -276 121q-161 92 -205 229q-19 60 -19 132q0 86 31.5 156.5t85.5 118t127.5 80t154.5 47t169 14.5q122 0 219 -27t159.5 -72t104 -106.5t59 -126t17.5 -135.5h-426 q0 178 -142 178q-56 0 -93.5 -29t-37.5 -84q0 -53 47 -90t150 -74q199 -71 281 -115q188 -103 227 -262q12 -47 12 -100q0 -221 -156.5 -345t-429.5 -124q-272 0 -430.5 136.5t-158.5 385.5z" />
<glyph unicode="T" horiz-adv-x="1097" d="M41 1069v365h1016v-365h-295v-1069h-426v1069h-295z" />
<glyph unicode="U" horiz-adv-x="1378" d="M90 498v936h426v-932q0 -74 49.5 -127t122.5 -53q75 0 124.5 52.5t49.5 127.5v932h426v-936q0 -238 -162 -387.5t-438 -149.5q-274 0 -436 150t-162 387z" />
<glyph unicode="V" horiz-adv-x="1474" d="M-20 1434h460l291 -981l289 981h475l-541 -1434h-446z" />
<glyph unicode="W" horiz-adv-x="2228" d="M-12 1434h450l254 -856l252 856h340l250 -856l256 856h451l-517 -1434h-372l-238 780l-240 -780h-370z" />
<glyph unicode="X" horiz-adv-x="1341" d="M-2 0l426 717l-426 717h467l207 -410l207 410h464l-425 -717l425 -717h-464l-207 410l-207 -410h-467z" />
<glyph unicode="Y" horiz-adv-x="1398" d="M-6 1434h500l231 -510l217 510h475l-710 -1434h-480l248 506z" />
<glyph unicode="Z" horiz-adv-x="1406" d="M41 0l661 1085h-587v349h1251l-659 -1086h620v-348h-1286z" />
<glyph unicode="_" horiz-adv-x="694" d="M68 483v303h559v-303h-559z" />
<glyph unicode="a" d="M63 508q0 238 132 386t342 148q103 0 192 -54t119 -122v152h401v-1018h-401v152q-30 -68 -119 -123.5t-192 -55.5q-210 0 -342 148t-132 387zM467 508q0 -83 53 -142t135 -59q84 0 138.5 58.5t54.5 142.5q0 85 -54 143t-139 58q-82 0 -135 -58t-53 -143z" />
<glyph unicode="b" d="M119 0v1434h401v-568q30 67 118.5 121.5t190.5 54.5q210 0 342 -148t132 -386q0 -239 -132 -387t-342 -148q-102 0 -190.5 55.5t-118.5 123.5v-152h-401zM520 508q0 -84 54 -142.5t137 -58.5t136.5 58.5t53.5 142.5q0 85 -53.5 143t-136.5 58t-137 -58t-54 -143z" />
<glyph unicode="c" horiz-adv-x="1263" d="M55 508q0 110 38 207t109.5 171.5t183.5 117.5t251 43q130 0 235.5 -36t174.5 -99t109 -144t50 -174h-401q-24 121 -164 121q-90 0 -137 -59.5t-47 -147.5t48 -146.5t142 -58.5q124 0 156 109h403q-23 -195 -170 -318t-397 -123q-139 0 -252 43.5t-184.5 118 t-109.5 170.5t-38 205z" />
<glyph unicode="d" d="M63 508q0 238 132 386t342 148q103 0 192 -54t119 -122v568h401v-1434h-401v152q-30 -68 -119 -123.5t-192 -55.5q-210 0 -342 148t-132 387zM467 508q0 -83 53 -142t135 -59q84 0 138.5 58.5t54.5 142.5q0 85 -54 143t-139 58q-82 0 -135 -58t-53 -143z" />
<glyph unicode="e" horiz-adv-x="1275" d="M55 508q0 112 37 209t108 171t183.5 116.5t253.5 42.5q135 0 245.5 -40t181 -106.5t108.5 -150.5t38 -175q0 -80 -12 -151h-741q8 -188 186 -188q65 0 107.5 28t54.5 74h389q-27 -163 -172 -265t-377 -102q-275 0 -432.5 145.5t-157.5 391.5zM457 618h352q0 83 -47 131 t-127 48t-129 -47.5t-49 -131.5z" />
<glyph unicode="f" horiz-adv-x="823" d="M27 737v281h159v55q0 101 23.5 174.5t59 114.5t92 65t107.5 30.5t120 6.5q130 0 209 -28v-262q-49 12 -95 12q-55 0 -84.5 -22t-29.5 -81v-65h209v-281h-209v-737h-402v737h-159z" />
<glyph unicode="g" horiz-adv-x="1363" d="M68 508q0 241 126 387.5t338 146.5q108 0 193.5 -46.5t124.5 -129.5v152h401v-961q0 -144 -42 -239.5t-130 -155.5q-75 -53 -175 -78.5t-251 -25.5q-155 0 -254.5 26t-165.5 80q-72 56 -116 132t-45 159h403q3 -53 51 -93t127 -40q92 0 144.5 46.5t52.5 139.5v158 q-39 -66 -121.5 -110t-185.5 -44q-213 0 -344 132t-131 364zM469 508q0 -84 53.5 -142.5t136.5 -58.5t137 58.5t54 142.5q0 85 -54 143t-137 58t-136.5 -58t-53.5 -143z" />
<glyph unicode="h" horiz-adv-x="1282" d="M119 0v1434h381v-566q42 79 126 126.5t199 47.5q171 0 254 -92q54 -56 74.5 -142t20.5 -210v-598h-381v516q0 193 -140 193q-153 0 -153 -211v-498h-381z" />
<glyph unicode="i" horiz-adv-x="638" d="M82 1325q0 98 68 167t167 69q100 0 169 -69t69 -167q0 -96 -68.5 -163.5t-169.5 -67.5q-99 0 -167 67.5t-68 163.5zM119 0v1018h401v-1018h-401z" />
<glyph unicode="j" horiz-adv-x="638" d="M-59 -131q47 -8 84 -8q94 0 94 100v1057h401v-1100q0 -88 -17 -153t-45.5 -104t-72.5 -62.5t-91.5 -32t-109.5 -8.5q-66 0 -137 8t-106 20v283zM82 1325q0 98 68 167t167 69q100 0 169 -69t69 -167q0 -96 -68.5 -163.5t-169.5 -67.5q-99 0 -167 67.5t-68 163.5z" />
<glyph unicode="k" horiz-adv-x="1249" d="M119 0v1434h401v-826l258 410h467l-368 -510l368 -508h-469l-256 408v-408h-401z" />
<glyph unicode="l" horiz-adv-x="638" d="M119 0v1434h401v-1434h-401z" />
<glyph unicode="m" horiz-adv-x="1884" d="M119 0v1018h381v-150q36 76 115 125t188 49q230 0 299 -184q44 85 127.5 134.5t195.5 49.5q84 0 147 -22.5t101.5 -60t62 -94.5t32 -117.5t8.5 -137.5v-610h-383v530q0 179 -121 179q-135 0 -135 -201v-508h-381v530q0 90 -29 134.5t-92 44.5q-135 0 -135 -213v-496h-381 z" />
<glyph unicode="n" horiz-adv-x="1323" d="M119 0v1018h401v-150q41 81 128 127.5t208 46.5q87 0 156.5 -25.5t109.5 -70.5q53 -56 72.5 -137.5t19.5 -206.5v-602h-401v516q0 95 -32.5 144t-106.5 49q-154 0 -154 -211v-498h-401z" />
<glyph unicode="o" horiz-adv-x="1292" d="M53 508q0 112 40 209.5t113.5 171t186.5 116t252 42.5t252.5 -42.5t187.5 -116t114 -171t40 -209.5q0 -110 -40 -207.5t-114 -171t-188 -116t-252 -42.5t-251.5 42.5t-187 116t-113.5 171t-40 207.5zM455 508q0 -85 52.5 -143t137.5 -58q86 0 138.5 58t52.5 143 q0 88 -52.5 144.5t-138.5 56.5q-85 0 -137.5 -57t-52.5 -144z" />
<glyph unicode="p" d="M119 -416v1434h401v-150q30 67 118.5 120.5t190.5 53.5q210 0 342 -147t132 -385q0 -239 -132 -387t-342 -148q-102 0 -190.5 54.5t-118.5 122.5v-568h-401zM520 510q0 -84 54 -142.5t137 -58.5t136.5 58.5t53.5 142.5t-53.5 142.5t-136.5 58.5t-137 -58.5t-54 -142.5z " />
<glyph unicode="q" d="M66 510q0 238 131.5 385t341.5 147q104 0 192.5 -53.5t116.5 -120.5v150h403v-1434h-403v568q-28 -68 -117 -122.5t-192 -54.5q-210 0 -341.5 148t-131.5 387zM467 510q0 -84 53.5 -142.5t136.5 -58.5t137 58.5t54 142.5t-54 142.5t-137 58.5t-136.5 -58.5t-53.5 -142.5z " />
<glyph unicode="r" horiz-adv-x="935" d="M119 0v1018h401v-162q37 75 119.5 128.5t185.5 53.5q59 0 105 -14v-367q-72 19 -137 19q-127 0 -200 -72.5t-73 -245.5v-358h-401z" />
<glyph unicode="s" horiz-adv-x="1159" d="M59 340h402q0 -123 131 -123q48 0 75 19.5t27 54.5q0 41 -43 61.5t-190 61.5q-55 13 -83.5 20.5t-76.5 23t-73 29.5t-58 38t-49.5 50.5t-28.5 64.5t-12 83q0 170 127 247t385 77q134 0 231 -26t151.5 -73.5t79.5 -106.5t25 -134h-399q0 54 -29 81t-78 27q-40 0 -67 -18 t-27 -54q0 -37 42 -56.5t159 -50.5q27 -7 41 -11q54 -13 88.5 -22.5t78 -24.5t70.5 -30.5t55.5 -38.5t44.5 -50t26 -64t10 -82q0 -342 -510 -342q-264 0 -394.5 96t-130.5 273z" />
<glyph unicode="t" horiz-adv-x="849" d="M27 737v281h149v297h404v-297h229v-281h-229v-307q0 -89 34.5 -121.5t96.5 -32.5q34 0 108 9v-285q-110 -20 -250 -20q-46 0 -80.5 2t-78 10.5t-74.5 23t-63 41.5t-52 64.5t-32.5 93t-12.5 125.5v397h-149z" />
<glyph unicode="u" horiz-adv-x="1323" d="M106 416v602h404v-516q0 -95 32.5 -144t106.5 -49q75 0 114.5 53.5t39.5 157.5v498h401v-1018h-401v152q-40 -83 -127.5 -130t-208.5 -47q-86 0 -156 26t-110 71q-54 57 -74.5 139t-20.5 205z" />
<glyph unicode="v" horiz-adv-x="1247" d="M-10 1018h418l213 -606l219 606h417l-460 -1018h-353z" />
<glyph unicode="w" horiz-adv-x="1746" d="M-4 1018h405l162 -567l131 567h359l131 -567l162 567h405l-365 -1018h-358l-156 547l-153 -547h-359z" />
<glyph unicode="x" horiz-adv-x="1193" d="M-10 0l364 514l-358 504h465l135 -258l137 258h465l-360 -504l366 -514h-465l-143 268l-141 -268h-465z" />
<glyph unicode="y" horiz-adv-x="1335" d="M106 -45h404q3 -63 44 -100t110 -37q80 0 117.5 41t37.5 137v184q-40 -81 -122.5 -126.5t-196.5 -45.5q-91 0 -166 30t-117 77q-54 57 -74 133.5t-20 197.5v572h403v-516q0 -193 140 -193q153 0 153 211v498h402v-979q0 -123 -42 -220t-112 -153q-74 -59 -166 -83.5 t-242 -24.5q-147 0 -243.5 23t-165.5 79q-141 120 -144 295z" />
<glyph unicode="z" horiz-adv-x="1071" d="M29 0l417 686h-378v332h974l-413 -686h387v-332h-987z" />
<glyph unicode="&#xad;" horiz-adv-x="694" d="M68 483v303h559v-303h-559z" />
<glyph unicode="&#xc0;" horiz-adv-x="1531" d="M8 0l529 1434h446l541 -1434h-475l-50 166h-481l-49 -166h-461zM608 475h303l-151 529z" />
<glyph unicode="&#xc1;" horiz-adv-x="1531" d="M8 0l529 1434h446l541 -1434h-475l-50 166h-481l-49 -166h-461zM608 475h303l-151 529z" />
<glyph unicode="&#xc2;" horiz-adv-x="1531" d="M8 0l529 1434h446l541 -1434h-475l-50 166h-481l-49 -166h-461zM608 475h303l-151 529z" />
<glyph unicode="&#xc3;" horiz-adv-x="1531" d="M8 0l529 1434h446l541 -1434h-475l-50 166h-481l-49 -166h-461zM608 475h303l-151 529z" />
<glyph unicode="&#xc4;" horiz-adv-x="1531" d="M8 0l529 1434h446l541 -1434h-475l-50 166h-481l-49 -166h-461zM608 475h303l-151 529z" />
<glyph unicode="&#xc5;" horiz-adv-x="1531" d="M8 0l529 1434h446l541 -1434h-475l-50 166h-481l-49 -166h-461zM608 475h303l-151 529z" />
<glyph unicode="&#xc6;" horiz-adv-x="2691" d="M8 0l529 1434h446l541 -1434h-475l-50 166h-481l-49 -166h-461zM608 475h303l-151 529zM1657 0v1434h923v-320h-497v-250h497v-305h-497v-240h497v-319h-923z" />
<glyph unicode="&#xc7;" horiz-adv-x="1640" d="M53 717q0 119 33.5 231t99.5 207t158 166t216 111.5t265 40.5q169 0 308 -49.5t232.5 -135.5t150 -199t71.5 -245h-446q-20 107 -98 174t-205 67q-164 0 -256.5 -106.5t-92.5 -261.5q0 -161 96.5 -265t260.5 -104q114 0 194 62t101 155h450q-18 -125 -76.5 -233.5 t-152 -192t-228.5 -131t-296 -47.5q-180 0 -330 62t-248.5 166.5t-152.5 241t-54 286.5z" />
<glyph unicode="&#xc8;" horiz-adv-x="1159" d="M125 0v1434h924v-320h-498v-250h498v-305h-498v-240h498v-319h-924z" />
<glyph unicode="&#xc9;" horiz-adv-x="1159" d="M125 0v1434h924v-320h-498v-250h498v-305h-498v-240h498v-319h-924z" />
<glyph unicode="&#xca;" horiz-adv-x="1159" d="M125 0v1434h924v-320h-498v-250h498v-305h-498v-240h498v-319h-924z" />
<glyph unicode="&#xcb;" horiz-adv-x="1159" d="M125 0v1434h924v-320h-498v-250h498v-305h-498v-240h498v-319h-924z" />
<glyph unicode="&#xcc;" horiz-adv-x="679" d="M125 0v1434h430v-1434h-430z" />
<glyph unicode="&#xcd;" horiz-adv-x="679" d="M125 0v1434h430v-1434h-430z" />
<glyph unicode="&#xce;" horiz-adv-x="679" d="M125 0v1434h430v-1434h-430z" />
<glyph unicode="&#xcf;" horiz-adv-x="679" d="M125 0v1434h430v-1434h-430z" />
<glyph unicode="&#xd0;" horiz-adv-x="1513" d="M125 0v1434h586q173 0 316.5 -59.5t237 -159.5t144.5 -228.5t51 -269.5t-50.5 -269.5t-143.5 -228.5t-237 -159.5t-318 -59.5h-586zM551 360h129q155 0 249.5 106t94.5 251t-94.5 250.5t-249.5 105.5h-129v-713z" />
<glyph unicode="&#xd1;" horiz-adv-x="1579" d="M125 0v1434h434l467 -850v850h428v-1434h-434l-469 821v-821h-426z" />
<glyph unicode="&#xd2;" horiz-adv-x="1660" d="M53 717q0 119 33 230.5t99 206.5t158 166.5t217 112t269 40.5t270 -40.5t218 -112t158.5 -166.5t99.5 -206.5t33 -230.5t-33 -230.5t-99.5 -206.5t-158.5 -166.5t-218 -112t-270 -40.5t-269 40.5t-217 112t-158 166.5t-99 206.5t-33 230.5zM483 717q0 -150 95 -258.5 t251 -108.5q105 0 186 52.5t121 135t40 179.5t-40 179t-120.5 134.5t-186.5 52.5q-156 0 -251 -108t-95 -258z" />
<glyph unicode="&#xd3;" horiz-adv-x="1660" d="M53 717q0 119 33 230.5t99 206.5t158 166.5t217 112t269 40.5t270 -40.5t218 -112t158.5 -166.5t99.5 -206.5t33 -230.5t-33 -230.5t-99.5 -206.5t-158.5 -166.5t-218 -112t-270 -40.5t-269 40.5t-217 112t-158 166.5t-99 206.5t-33 230.5zM483 717q0 -150 95 -258.5 t251 -108.5q105 0 186 52.5t121 135t40 179.5t-40 179t-120.5 134.5t-186.5 52.5q-156 0 -251 -108t-95 -258z" />
<glyph unicode="&#xd4;" horiz-adv-x="1660" d="M53 717q0 119 33 230.5t99 206.5t158 166.5t217 112t269 40.5t270 -40.5t218 -112t158.5 -166.5t99.5 -206.5t33 -230.5t-33 -230.5t-99.5 -206.5t-158.5 -166.5t-218 -112t-270 -40.5t-269 40.5t-217 112t-158 166.5t-99 206.5t-33 230.5zM483 717q0 -150 95 -258.5 t251 -108.5q105 0 186 52.5t121 135t40 179.5t-40 179t-120.5 134.5t-186.5 52.5q-156 0 -251 -108t-95 -258z" />
<glyph unicode="&#xd5;" horiz-adv-x="1660" d="M53 717q0 119 33 230.5t99 206.5t158 166.5t217 112t269 40.5t270 -40.5t218 -112t158.5 -166.5t99.5 -206.5t33 -230.5t-33 -230.5t-99.5 -206.5t-158.5 -166.5t-218 -112t-270 -40.5t-269 40.5t-217 112t-158 166.5t-99 206.5t-33 230.5zM483 717q0 -150 95 -258.5 t251 -108.5q105 0 186 52.5t121 135t40 179.5t-40 179t-120.5 134.5t-186.5 52.5q-156 0 -251 -108t-95 -258z" />
<glyph unicode="&#xd6;" horiz-adv-x="1660" d="M53 717q0 119 33 230.5t99 206.5t158 166.5t217 112t269 40.5t270 -40.5t218 -112t158.5 -166.5t99.5 -206.5t33 -230.5t-33 -230.5t-99.5 -206.5t-158.5 -166.5t-218 -112t-270 -40.5t-269 40.5t-217 112t-158 166.5t-99 206.5t-33 230.5zM483 717q0 -150 95 -258.5 t251 -108.5q105 0 186 52.5t121 135t40 179.5t-40 179t-120.5 134.5t-186.5 52.5q-156 0 -251 -108t-95 -258z" />
<glyph unicode="&#xd8;" horiz-adv-x="1660" d="M53 717q0 119 33 230.5t99 206.5t158 166.5t217 112t269 40.5t270 -40.5t218 -112t158.5 -166.5t99.5 -206.5t33 -230.5t-33 -230.5t-99.5 -206.5t-158.5 -166.5t-218 -112t-270 -40.5t-269 40.5t-217 112t-158 166.5t-99 206.5t-33 230.5zM483 717q0 -150 95 -258.5 t251 -108.5q105 0 186 52.5t121 135t40 179.5t-40 179t-120.5 134.5t-186.5 52.5q-156 0 -251 -108t-95 -258z" />
<glyph unicode="&#xd9;" horiz-adv-x="1378" d="M90 498v936h426v-932q0 -74 49.5 -127t122.5 -53q75 0 124.5 52.5t49.5 127.5v932h426v-936q0 -238 -162 -387.5t-438 -149.5q-274 0 -436 150t-162 387z" />
<glyph unicode="&#xda;" horiz-adv-x="1378" d="M90 498v936h426v-932q0 -74 49.5 -127t122.5 -53q75 0 124.5 52.5t49.5 127.5v932h426v-936q0 -238 -162 -387.5t-438 -149.5q-274 0 -436 150t-162 387z" />
<glyph unicode="&#xdb;" horiz-adv-x="1378" d="M90 498v936h426v-932q0 -74 49.5 -127t122.5 -53q75 0 124.5 52.5t49.5 127.5v932h426v-936q0 -238 -162 -387.5t-438 -149.5q-274 0 -436 150t-162 387z" />
<glyph unicode="&#xdc;" horiz-adv-x="1378" d="M90 498v936h426v-932q0 -74 49.5 -127t122.5 -53q75 0 124.5 52.5t49.5 127.5v932h426v-936q0 -238 -162 -387.5t-438 -149.5q-274 0 -436 150t-162 387z" />
<glyph unicode="&#xdd;" horiz-adv-x="1398" d="M-6 1434h500l231 -510l217 510h475l-710 -1434h-480l248 506z" />
<glyph unicode="&#xde;" horiz-adv-x="1378" d="M125 0v1434h688q159 0 283.5 -73.5t190 -195t65.5 -266.5q0 -144 -65.5 -264.5t-190 -194t-283.5 -73.5h-262v-367h-426zM551 696h176q84 0 137.5 59t53.5 144t-52.5 144t-136.5 59h-178v-406z" />
<glyph unicode="&#xdf;" horiz-adv-x="2318" d="M59 340h402q0 -123 131 -123q48 0 75 19.5t27 54.5q0 41 -43 61.5t-190 61.5q-55 13 -83.5 20.5t-76.5 23t-73 29.5t-58 38t-49.5 50.5t-28.5 64.5t-12 83q0 170 127 247t385 77q134 0 231 -26t151.5 -73.5t79.5 -106.5t25 -134h-399q0 54 -29 81t-78 27q-40 0 -67 -18 t-27 -54q0 -37 42 -56.5t159 -50.5q27 -7 41 -11q54 -13 88.5 -22.5t78 -24.5t70.5 -30.5t55.5 -38.5t44.5 -50t26 -64t10 -82q0 -342 -510 -342q-264 0 -394.5 96t-130.5 273zM1219 340h401q0 -123 131 -123q48 0 75 19.5t27 54.5q0 41 -43 61.5t-190 61.5 q-55 13 -83.5 20.5t-76.5 23t-73 29.5t-58 38t-49.5 50.5t-28.5 64.5t-12 83q0 170 127 247t385 77q134 0 231 -26t151.5 -73.5t79.5 -106.5t25 -134h-399q0 54 -28.5 81t-77.5 27q-40 0 -67.5 -18t-27.5 -54q0 -37 42 -56.5t159 -50.5q27 -7 41 -11q54 -13 88.5 -22.5 t78 -24.5t70.5 -30.5t55.5 -38.5t44.5 -50t26 -64t10 -82q0 -342 -510 -342q-264 0 -394 95.5t-130 273.5z" />
<glyph unicode="&#xe0;" d="M63 508q0 238 132 386t342 148q103 0 192 -54t119 -122v152h401v-1018h-401v152q-30 -68 -119 -123.5t-192 -55.5q-210 0 -342 148t-132 387zM467 508q0 -83 53 -142t135 -59q84 0 138.5 58.5t54.5 142.5q0 85 -54 143t-139 58q-82 0 -135 -58t-53 -143z" />
<glyph unicode="&#xe1;" d="M63 508q0 238 132 386t342 148q103 0 192 -54t119 -122v152h401v-1018h-401v152q-30 -68 -119 -123.5t-192 -55.5q-210 0 -342 148t-132 387zM467 508q0 -83 53 -142t135 -59q84 0 138.5 58.5t54.5 142.5q0 85 -54 143t-139 58q-82 0 -135 -58t-53 -143z" />
<glyph unicode="&#xe2;" d="M63 508q0 238 132 386t342 148q103 0 192 -54t119 -122v152h401v-1018h-401v152q-30 -68 -119 -123.5t-192 -55.5q-210 0 -342 148t-132 387zM467 508q0 -83 53 -142t135 -59q84 0 138.5 58.5t54.5 142.5q0 85 -54 143t-139 58q-82 0 -135 -58t-53 -143z" />
<glyph unicode="&#xe3;" d="M63 508q0 238 132 386t342 148q103 0 192 -54t119 -122v152h401v-1018h-401v152q-30 -68 -119 -123.5t-192 -55.5q-210 0 -342 148t-132 387zM467 508q0 -83 53 -142t135 -59q84 0 138.5 58.5t54.5 142.5q0 85 -54 143t-139 58q-82 0 -135 -58t-53 -143z" />
<glyph unicode="&#xe4;" d="M63 508q0 238 132 386t342 148q103 0 192 -54t119 -122v152h401v-1018h-401v152q-30 -68 -119 -123.5t-192 -55.5q-210 0 -342 148t-132 387zM467 508q0 -83 53 -142t135 -59q84 0 138.5 58.5t54.5 142.5q0 85 -54 143t-139 58q-82 0 -135 -58t-53 -143z" />
<glyph unicode="&#xe5;" d="M63 508q0 238 132 386t342 148q103 0 192 -54t119 -122v152h401v-1018h-401v152q-30 -68 -119 -123.5t-192 -55.5q-210 0 -342 148t-132 387zM467 508q0 -83 53 -142t135 -59q84 0 138.5 58.5t54.5 142.5q0 85 -54 143t-139 58q-82 0 -135 -58t-53 -143z" />
<glyph unicode="&#xe6;" horiz-adv-x="2643" d="M63 508q0 238 132 386t342 148q103 0 192 -54t119 -122v152h401v-1018h-401v152q-30 -68 -119 -123.5t-192 -55.5q-210 0 -342 148t-132 387zM467 508q0 -83 53 -142t135 -59q84 0 138.5 58.5t54.5 142.5q0 85 -54 143t-139 58q-82 0 -135 -58t-53 -143zM1423 508 q0 112 37 209t108 171t183.5 116.5t253.5 42.5q135 0 245.5 -40t181 -106.5t108.5 -150.5t38 -175q0 -80 -12 -151h-741q8 -188 186 -188q65 0 107.5 28t54.5 74h389q-27 -163 -172 -265t-377 -102q-275 0 -432.5 145.5t-157.5 391.5zM1825 618h352q0 83 -47 131t-127 48 t-129 -47.5t-49 -131.5z" />
<glyph unicode="&#xe7;" horiz-adv-x="1263" d="M55 508q0 110 38 207t109.5 171.5t183.5 117.5t251 43q130 0 235.5 -36t174.5 -99t109 -144t50 -174h-401q-24 121 -164 121q-90 0 -137 -59.5t-47 -147.5t48 -146.5t142 -58.5q124 0 156 109h403q-23 -195 -170 -318t-397 -123q-139 0 -252 43.5t-184.5 118 t-109.5 170.5t-38 205z" />
<glyph unicode="&#xe8;" horiz-adv-x="1275" d="M55 508q0 112 37 209t108 171t183.5 116.5t253.5 42.5q135 0 245.5 -40t181 -106.5t108.5 -150.5t38 -175q0 -80 -12 -151h-741q8 -188 186 -188q65 0 107.5 28t54.5 74h389q-27 -163 -172 -265t-377 -102q-275 0 -432.5 145.5t-157.5 391.5zM457 618h352q0 83 -47 131 t-127 48t-129 -47.5t-49 -131.5z" />
<glyph unicode="&#xe9;" horiz-adv-x="1275" d="M55 508q0 112 37 209t108 171t183.5 116.5t253.5 42.5q135 0 245.5 -40t181 -106.5t108.5 -150.5t38 -175q0 -80 -12 -151h-741q8 -188 186 -188q65 0 107.5 28t54.5 74h389q-27 -163 -172 -265t-377 -102q-275 0 -432.5 145.5t-157.5 391.5zM457 618h352q0 83 -47 131 t-127 48t-129 -47.5t-49 -131.5z" />
<glyph unicode="&#xea;" horiz-adv-x="1275" d="M55 508q0 112 37 209t108 171t183.5 116.5t253.5 42.5q135 0 245.5 -40t181 -106.5t108.5 -150.5t38 -175q0 -80 -12 -151h-741q8 -188 186 -188q65 0 107.5 28t54.5 74h389q-27 -163 -172 -265t-377 -102q-275 0 -432.5 145.5t-157.5 391.5zM457 618h352q0 83 -47 131 t-127 48t-129 -47.5t-49 -131.5z" />
<glyph unicode="&#xeb;" horiz-adv-x="1275" d="M55 508q0 112 37 209t108 171t183.5 116.5t253.5 42.5q135 0 245.5 -40t181 -106.5t108.5 -150.5t38 -175q0 -80 -12 -151h-741q8 -188 186 -188q65 0 107.5 28t54.5 74h389q-27 -163 -172 -265t-377 -102q-275 0 -432.5 145.5t-157.5 391.5zM457 618h352q0 83 -47 131 t-127 48t-129 -47.5t-49 -131.5z" />
<glyph unicode="&#xec;" horiz-adv-x="638" d="M82 1325q0 98 68 167t167 69q100 0 169 -69t69 -167q0 -96 -68.5 -163.5t-169.5 -67.5q-99 0 -167 67.5t-68 163.5zM119 0v1018h401v-1018h-401z" />
<glyph unicode="&#xed;" horiz-adv-x="638" d="M82 1325q0 98 68 167t167 69q100 0 169 -69t69 -167q0 -96 -68.5 -163.5t-169.5 -67.5q-99 0 -167 67.5t-68 163.5zM119 0v1018h401v-1018h-401z" />
<glyph unicode="&#xee;" horiz-adv-x="638" d="M82 1325q0 98 68 167t167 69q100 0 169 -69t69 -167q0 -96 -68.5 -163.5t-169.5 -67.5q-99 0 -167 67.5t-68 163.5zM119 0v1018h401v-1018h-401z" />
<glyph unicode="&#xef;" horiz-adv-x="638" d="M82 1325q0 98 68 167t167 69q100 0 169 -69t69 -167q0 -96 -68.5 -163.5t-169.5 -67.5q-99 0 -167 67.5t-68 163.5zM119 0v1018h401v-1018h-401z" />
<glyph unicode="&#xf1;" horiz-adv-x="1323" d="M119 0v1018h401v-150q41 81 128 127.5t208 46.5q87 0 156.5 -25.5t109.5 -70.5q53 -56 72.5 -137.5t19.5 -206.5v-602h-401v516q0 95 -32.5 144t-106.5 49q-154 0 -154 -211v-498h-401z" />
<glyph unicode="&#xf2;" horiz-adv-x="1292" d="M53 508q0 112 40 209.5t113.5 171t186.5 116t252 42.5t252.5 -42.5t187.5 -116t114 -171t40 -209.5q0 -110 -40 -207.5t-114 -171t-188 -116t-252 -42.5t-251.5 42.5t-187 116t-113.5 171t-40 207.5zM455 508q0 -85 52.5 -143t137.5 -58q86 0 138.5 58t52.5 143 q0 88 -52.5 144.5t-138.5 56.5q-85 0 -137.5 -57t-52.5 -144z" />
<glyph unicode="&#xf3;" horiz-adv-x="1292" d="M53 508q0 112 40 209.5t113.5 171t186.5 116t252 42.5t252.5 -42.5t187.5 -116t114 -171t40 -209.5q0 -110 -40 -207.5t-114 -171t-188 -116t-252 -42.5t-251.5 42.5t-187 116t-113.5 171t-40 207.5zM455 508q0 -85 52.5 -143t137.5 -58q86 0 138.5 58t52.5 143 q0 88 -52.5 144.5t-138.5 56.5q-85 0 -137.5 -57t-52.5 -144z" />
<glyph unicode="&#xf4;" horiz-adv-x="1292" d="M53 508q0 112 40 209.5t113.5 171t186.5 116t252 42.5t252.5 -42.5t187.5 -116t114 -171t40 -209.5q0 -110 -40 -207.5t-114 -171t-188 -116t-252 -42.5t-251.5 42.5t-187 116t-113.5 171t-40 207.5zM455 508q0 -85 52.5 -143t137.5 -58q86 0 138.5 58t52.5 143 q0 88 -52.5 144.5t-138.5 56.5q-85 0 -137.5 -57t-52.5 -144z" />
<glyph unicode="&#xf5;" horiz-adv-x="1292" d="M53 508q0 112 40 209.5t113.5 171t186.5 116t252 42.5t252.5 -42.5t187.5 -116t114 -171t40 -209.5q0 -110 -40 -207.5t-114 -171t-188 -116t-252 -42.5t-251.5 42.5t-187 116t-113.5 171t-40 207.5zM455 508q0 -85 52.5 -143t137.5 -58q86 0 138.5 58t52.5 143 q0 88 -52.5 144.5t-138.5 56.5q-85 0 -137.5 -57t-52.5 -144z" />
<glyph unicode="&#xf6;" horiz-adv-x="1292" d="M53 508q0 112 40 209.5t113.5 171t186.5 116t252 42.5t252.5 -42.5t187.5 -116t114 -171t40 -209.5q0 -110 -40 -207.5t-114 -171t-188 -116t-252 -42.5t-251.5 42.5t-187 116t-113.5 171t-40 207.5zM455 508q0 -85 52.5 -143t137.5 -58q86 0 138.5 58t52.5 143 q0 88 -52.5 144.5t-138.5 56.5q-85 0 -137.5 -57t-52.5 -144z" />
<glyph unicode="&#xf8;" horiz-adv-x="1292" d="M53 508q0 112 40 209.5t113.5 171t186.5 116t252 42.5t252.5 -42.5t187.5 -116t114 -171t40 -209.5q0 -110 -40 -207.5t-114 -171t-188 -116t-252 -42.5t-251.5 42.5t-187 116t-113.5 171t-40 207.5zM455 508q0 -85 52.5 -143t137.5 -58q86 0 138.5 58t52.5 143 q0 88 -52.5 144.5t-138.5 56.5q-85 0 -137.5 -57t-52.5 -144z" />
<glyph unicode="&#xf9;" horiz-adv-x="1323" d="M106 416v602h404v-516q0 -95 32.5 -144t106.5 -49q75 0 114.5 53.5t39.5 157.5v498h401v-1018h-401v152q-40 -83 -127.5 -130t-208.5 -47q-86 0 -156 26t-110 71q-54 57 -74.5 139t-20.5 205z" />
<glyph unicode="&#xfa;" horiz-adv-x="1323" d="M106 416v602h404v-516q0 -95 32.5 -144t106.5 -49q75 0 114.5 53.5t39.5 157.5v498h401v-1018h-401v152q-40 -83 -127.5 -130t-208.5 -47q-86 0 -156 26t-110 71q-54 57 -74.5 139t-20.5 205z" />
<glyph unicode="&#xfb;" horiz-adv-x="1323" d="M106 416v602h404v-516q0 -95 32.5 -144t106.5 -49q75 0 114.5 53.5t39.5 157.5v498h401v-1018h-401v152q-40 -83 -127.5 -130t-208.5 -47q-86 0 -156 26t-110 71q-54 57 -74.5 139t-20.5 205z" />
<glyph unicode="&#xfc;" horiz-adv-x="1323" d="M106 416v602h404v-516q0 -95 32.5 -144t106.5 -49q75 0 114.5 53.5t39.5 157.5v498h401v-1018h-401v152q-40 -83 -127.5 -130t-208.5 -47q-86 0 -156 26t-110 71q-54 57 -74.5 139t-20.5 205z" />
<glyph unicode="&#xfd;" horiz-adv-x="1335" d="M106 -45h404q3 -63 44 -100t110 -37q80 0 117.5 41t37.5 137v184q-40 -81 -122.5 -126.5t-196.5 -45.5q-91 0 -166 30t-117 77q-54 57 -74 133.5t-20 197.5v572h403v-516q0 -193 140 -193q153 0 153 211v498h402v-979q0 -123 -42 -220t-112 -153q-74 -59 -166 -83.5 t-242 -24.5q-147 0 -243.5 23t-165.5 79q-141 120 -144 295z" />
<glyph unicode="&#xfe;" d="M119 -416v1434h401v-150q30 67 118.5 120.5t190.5 53.5q210 0 342 -147t132 -385q0 -239 -132 -387t-342 -148q-102 0 -190.5 54.5t-118.5 122.5v-568h-401zM520 510q0 -84 54 -142.5t137 -58.5t136.5 58.5t53.5 142.5t-53.5 142.5t-136.5 58.5t-137 -58.5t-54 -142.5z " />
<glyph unicode="&#xff;" horiz-adv-x="1335" d="M106 -45h404q3 -63 44 -100t110 -37q80 0 117.5 41t37.5 137v184q-40 -81 -122.5 -126.5t-196.5 -45.5q-91 0 -166 30t-117 77q-54 57 -74 133.5t-20 197.5v572h403v-516q0 -193 140 -193q153 0 153 211v498h402v-979q0 -123 -42 -220t-112 -153q-74 -59 -166 -83.5 t-242 -24.5q-147 0 -243.5 23t-165.5 79q-141 120 -144 295z" />
<glyph unicode="&#x152;" horiz-adv-x="2820" d="M53 717q0 119 33 230.5t99 206.5t158 166.5t217 112t269 40.5t270 -40.5t218 -112t158.5 -166.5t99.5 -206.5t33 -230.5t-33 -230.5t-99.5 -206.5t-158.5 -166.5t-218 -112t-270 -40.5t-269 40.5t-217 112t-158 166.5t-99 206.5t-33 230.5zM483 717q0 -150 95 -258.5 t251 -108.5q105 0 186 52.5t121 135t40 179.5t-40 179t-120.5 134.5t-186.5 52.5q-156 0 -251 -108t-95 -258zM1786 0v1434h924v-320h-498v-250h498v-305h-498v-240h498v-319h-924z" />
<glyph unicode="&#x153;" horiz-adv-x="2568" d="M53 508q0 112 40 209.5t113.5 171t186.5 116t252 42.5t252.5 -42.5t187.5 -116t114 -171t40 -209.5q0 -110 -40 -207.5t-114 -171t-188 -116t-252 -42.5t-251.5 42.5t-187 116t-113.5 171t-40 207.5zM455 508q0 -85 52.5 -143t137.5 -58q86 0 138.5 58t52.5 143 q0 88 -52.5 144.5t-138.5 56.5q-85 0 -137.5 -57t-52.5 -144zM1348 508q0 112 37 209t107.5 171t183 116.5t253.5 42.5q135 0 245.5 -40t181 -106.5t109 -150.5t38.5 -175q0 -74 -13 -151h-741q8 -188 186 -188q65 0 107.5 28t54.5 74h389q-27 -163 -172 -265t-377 -102 q-275 0 -432 145.5t-157 391.5zM1749 618h352q0 83 -47 131t-127 48t-129 -47.5t-49 -131.5z" />
<glyph unicode="&#x178;" horiz-adv-x="1398" d="M-6 1434h500l231 -510l217 510h475l-710 -1434h-480l248 506z" />
<glyph unicode="&#x2000;" horiz-adv-x="780" />
<glyph unicode="&#x2001;" horiz-adv-x="1561" />
<glyph unicode="&#x2002;" horiz-adv-x="780" />
<glyph unicode="&#x2003;" horiz-adv-x="1561" />
<glyph unicode="&#x2004;" horiz-adv-x="520" />
<glyph unicode="&#x2005;" horiz-adv-x="390" />
<glyph unicode="&#x2006;" horiz-adv-x="260" />
<glyph unicode="&#x2007;" horiz-adv-x="260" />
<glyph unicode="&#x2008;" horiz-adv-x="195" />
<glyph unicode="&#x2009;" horiz-adv-x="312" />
<glyph unicode="&#x200a;" horiz-adv-x="86" />
<glyph unicode="&#x2010;" horiz-adv-x="694" d="M68 483v303h559v-303h-559z" />
<glyph unicode="&#x2011;" horiz-adv-x="694" d="M68 483v303h559v-303h-559z" />
<glyph unicode="&#x2012;" horiz-adv-x="694" d="M68 483v303h559v-303h-559z" />
<glyph unicode="&#x2013;" horiz-adv-x="694" d="M68 483v303h559v-303h-559z" />
<glyph unicode="&#x2014;" horiz-adv-x="694" d="M68 483v303h559v-303h-559z" />
<glyph unicode="&#x202f;" horiz-adv-x="312" />
<glyph unicode="&#x205f;" horiz-adv-x="390" />
<glyph unicode="&#x25fc;" horiz-adv-x="1013" d="M0 0v1014h1014v-1014h-1014z" />
<glyph unicode="&#xfb01;" horiz-adv-x="1462" d="M27 737v281h159v55q0 101 23.5 174.5t59 114.5t92 65t107.5 30.5t120 6.5q130 0 209 -28v-262q-49 12 -95 12q-55 0 -84.5 -22t-29.5 -81v-65h209v-281h-209v-737h-402v737h-159zM905 1325q0 97 68.5 166.5t167.5 69.5q100 0 168.5 -69t68.5 -167q0 -96 -68.5 -163.5 t-168.5 -67.5q-99 0 -167.5 67.5t-68.5 163.5zM942 0v1018h401v-1018h-401z" />
</font>
</defs>
</svg>
