<?xml version="1.0" standalone="no"?>
<!DOCTYPE svg PUBLIC "-//W3C//DTD SVG 1.1//EN" "http://www.w3.org/Graphics/SVG/1.1/DTD/svg11.dtd" >
<svg xmlns="http://www.w3.org/2000/svg">
<metadata></metadata>
<defs>
<font id="gt_walsheim_pro_trialultraLt" horiz-adv-x="1187" >
<font-face units-per-em="2048" ascent="1454" descent="-594" />
<missing-glyph horiz-adv-x="532" />
<glyph horiz-adv-x="0" />
<glyph horiz-adv-x="0" />
<glyph horiz-adv-x="682" />
<glyph unicode=" "  horiz-adv-x="532" />
<glyph unicode="&#x09;" horiz-adv-x="532" />
<glyph unicode="&#xa0;" horiz-adv-x="532" />
<glyph unicode="!" horiz-adv-x="362" d="M160 0v211h41v-211h-41z" />
<glyph unicode="," horiz-adv-x="425" d="M123 -197q74 0 117 37.5t43 116.5v254h41v-254q0 -101 -54.5 -148t-146.5 -47v41z" />
<glyph unicode="-" horiz-adv-x="602" d="M61 563v41h480v-41h-480z" />
<glyph unicode="." horiz-adv-x="362" d="M160 0v211h41v-211h-41z" />
<glyph unicode="0" horiz-adv-x="1177" d="M139 420v592q0 122 54.5 224t158 163t234.5 61q202 0 327 -130t125 -318v-592q0 -122 -54.5 -223t-159 -162.5t-238.5 -61.5q-131 0 -234.5 61.5t-158 163t-54.5 222.5zM180 420q0 -169 113 -287.5t293 -118.5q122 0 217 56t144.5 148t49.5 202v592q0 171 -113.5 289 t-297.5 118q-180 0 -293 -118.5t-113 -288.5v-592z" />
<glyph unicode="1" horiz-adv-x="577" d="M72 1155v41q90 0 144 12.5t83 44.5t38 72t9 109h41v-1434h-41v1247q-63 -92 -274 -92z" />
<glyph unicode="2" horiz-adv-x="1075" d="M96 1004q0 193 122 320.5t327 127.5t316.5 -105.5t111.5 -273.5q0 -79 -21 -142t-53.5 -105t-87 -76.5t-107.5 -56t-129 -44.5q-245 -72 -340.5 -205t-95.5 -403h854v-41h-895q0 168 23.5 280t81 191.5t141.5 127.5t219 89q60 18 102.5 34.5t88 39.5t75 51t54.5 65t37 86 t12 109q0 145 -101.5 241.5t-285.5 96.5q-187 0 -297.5 -116t-110.5 -291h-41z" />
<glyph unicode="3" horiz-adv-x="1081" d="M68 373h41q0 -156 111 -253t294 -97q188 0 300 96.5t112 253.5q0 153 -107.5 248.5t-286.5 95.5h-120v41h118q171 0 273 88.5t102 232.5q0 149 -106 240.5t-285 91.5q-176 0 -281.5 -91.5t-105.5 -240.5h-41q0 167 117 270t311 103q197 0 314.5 -103t117.5 -270 q0 -133 -80 -227t-225 -115q153 -21 239.5 -121.5t86.5 -242.5q0 -175 -123.5 -283t-329.5 -108q-201 0 -323.5 108.5t-122.5 282.5z" />
<glyph unicode="4" horiz-adv-x="1089" d="M154 553v881h41v-840h526v477h41v-477h270v-41h-270v-553h-41v553h-567z" />
<glyph unicode="5" horiz-adv-x="1175" d="M154 428h41q0 -169 112.5 -287t292.5 -118q184 0 298 118t114 287q0 170 -113.5 283.5t-298.5 113.5q-126 0 -216.5 -56.5t-135.5 -158.5h-53v824h766v-41h-725v-727q44 91 143.5 145.5t220.5 54.5q203 0 328 -125.5t125 -312.5q0 -121 -55 -222.5t-159.5 -162.5 t-238.5 -61q-131 0 -234 61t-157.5 162.5t-54.5 222.5z" />
<glyph unicode="6" horiz-adv-x="1056" d="M76 428q0 139 67 246l473 760h50l-406 -650q38 44 111.5 68.5t150.5 24.5q134 0 238.5 -61.5t159.5 -163.5t55 -224q0 -121 -55 -222.5t-159.5 -162.5t-238.5 -61q-131 0 -234 61t-157.5 162.5t-54.5 222.5zM117 428q0 -169 112.5 -287t292.5 -118q184 0 298 118t114 287 q0 171 -114 289.5t-298 118.5q-180 0 -292.5 -118.5t-112.5 -289.5z" />
<glyph unicode="7" horiz-adv-x="878" d="M78 1393v41h811l-717 -1434h-45l694 1393h-743z" />
<glyph unicode="8" horiz-adv-x="1130" d="M113 373q0 142 85.5 241.5t239.5 122.5q-146 23 -225.5 116t-79.5 226q0 167 117.5 270t314.5 103t314.5 -103t117.5 -270q0 -133 -79.5 -226t-225.5 -116q155 -23 240.5 -122.5t85.5 -241.5q0 -175 -123.5 -283t-329.5 -108q-205 0 -328.5 108t-123.5 283zM154 373 q0 -157 112 -253.5t299 -96.5q188 0 300 96.5t112 253.5q0 155 -110.5 249.5t-301.5 94.5t-301 -94.5t-110 -249.5zM178 1079q0 -145 103.5 -233t283.5 -88q182 0 286.5 88t104.5 233q0 149 -106 240.5t-285 91.5q-176 0 -281.5 -91.5t-105.5 -240.5z" />
<glyph unicode="9" horiz-adv-x="1056" d="M82 1006q0 121 55 222.5t159.5 162.5t238.5 61q131 0 234 -61t157.5 -162.5t54.5 -222.5q0 -137 -68 -246l-473 -760h-49l406 649q-38 -44 -111 -68t-151 -24q-134 0 -238.5 61.5t-159.5 163.5t-55 224zM123 1006q0 -171 114 -289.5t298 -118.5q180 0 292.5 118.5 t112.5 289.5q0 169 -112.5 287t-292.5 118q-184 0 -298 -118t-114 -287z" />
<glyph unicode=":" horiz-adv-x="362" d="M160 0v211h41v-211h-41z" />
<glyph unicode=";" horiz-adv-x="425" d="M123 -197q74 0 117 37.5t43 116.5v254h41v-254q0 -101 -54.5 -148t-146.5 -47v41z" />
<glyph unicode="?" horiz-adv-x="362" d="M160 0v211h41v-211h-41z" />
<glyph unicode="A" horiz-adv-x="1067" d="M20 0l492 1434h43l492 -1434h-43l-115 332h-713l-113 -332h-43zM190 373h684l-342 1011z" />
<glyph unicode="B" horiz-adv-x="1163" d="M190 0v1434h490q152 0 257 -108t105 -261q0 -124 -73.5 -224.5t-192.5 -123.5q120 -24 196.5 -124.5t76.5 -223.5q0 -152 -108.5 -260.5t-260.5 -108.5h-490zM231 41h449q135 0 231.5 96.5t96.5 231.5q0 133 -93 230t-223 97h-461v-655zM231 737h461q128 0 218.5 97.5 t90.5 230.5q0 136 -93.5 232t-227.5 96h-449v-656z" />
<glyph unicode="C" horiz-adv-x="1585" d="M98 719q0 145 50 278.5t140.5 236.5t227.5 164.5t299 61.5q275 0 447 -129t229 -340h-41q-56 194 -217 311t-418 117q-154 0 -283 -58t-214 -155.5t-132 -223.5t-47 -263q0 -113 30.5 -218t91 -193t144.5 -154t197 -103t242 -37q212 0 372.5 101.5t229.5 267.5h45 q-71 -182 -244.5 -296t-402.5 -114q-170 0 -312 60.5t-236 163t-146 237.5t-52 285z" />
<glyph unicode="D" horiz-adv-x="1404" d="M190 0v1434h373q172 0 315.5 -61t235.5 -162t142.5 -229t50.5 -265t-50.5 -265t-142.5 -229t-235.5 -162t-315.5 -61h-373zM231 41h332q163 0 298.5 57.5t222.5 152.5t134.5 215.5t47.5 250.5t-47.5 250.5t-134.5 215.5t-222.5 152.5t-298.5 57.5h-332v-1352z" />
<glyph unicode="E" horiz-adv-x="1105" d="M190 0v1434h736v-41h-695v-660h695v-41h-695v-651h695v-41h-736z" />
<glyph unicode="F" horiz-adv-x="1101" d="M190 0v1434h736v-41h-695v-682h695v-41h-695v-670h-41z" />
<glyph unicode="G" horiz-adv-x="1695" d="M98 717q0 145 50.5 278.5t142 237t231 165.5t305.5 62q206 0 361.5 -94.5t210.5 -243.5h-43q-54 130 -198 213.5t-331 83.5q-126 0 -237 -38t-192.5 -104.5t-140.5 -155t-88.5 -191.5t-29.5 -213t28.5 -213t86 -192t138.5 -155.5t193 -104.5t242 -38q279 0 433 147 t178 404h-531v41h717v-41h-143q-24 -275 -190 -433.5t-464 -158.5q-172 0 -312.5 62t-230 166t-138 237t-48.5 279z" />
<glyph unicode="H" horiz-adv-x="1351" d="M190 0v1434h41v-701h889v701h41v-1434h-41v692h-889v-692h-41z" />
<glyph unicode="I" horiz-adv-x="421" d="M190 0v1434h41v-1434h-41z" />
<glyph unicode="J" horiz-adv-x="1095" d="M41 420h41q0 -124 60 -218t155 -141t207 -47q173 0 282 109t109 297v1014h41v-1014q0 -208 -120.5 -327.5t-311.5 -119.5q-124 0 -228 51.5t-169.5 155t-65.5 240.5z" />
<glyph unicode="K" horiz-adv-x="1103" d="M190 0v1434h41v-717l807 717h62l-807 -717l807 -717h-62l-807 717v-717h-41z" />
<glyph unicode="L" horiz-adv-x="847" d="M190 0v1434h41v-1393h545v-41h-586z" />
<glyph unicode="M" horiz-adv-x="1652" d="M190 0v1434h43l592 -1385l594 1385h43v-1434h-41v1337l-573 -1337h-43l-574 1337v-1337h-41z" />
<glyph unicode="N" horiz-adv-x="1349" d="M190 0v1434h50l878 -1371v1371h41v-1434h-49l-879 1370v-1370h-41z" />
<glyph unicode="O" horiz-adv-x="1662" d="M98 717q0 145 51 278.5t143 237t232.5 165.5t306.5 62t306.5 -62t232.5 -165.5t143.5 -237t51.5 -278.5t-51.5 -279t-143.5 -237.5t-232.5 -165.5t-306.5 -62q-134 0 -251.5 40.5t-204.5 111t-150 164t-95 203t-32 225.5zM139 717q0 -137 48 -263.5t135 -224.5 t219.5 -156.5t289.5 -58.5t289.5 58.5t219.5 156.5t135.5 224.5t48.5 263.5t-48.5 263.5t-135.5 224t-219.5 156t-289.5 58.5t-289.5 -58.5t-219.5 -156t-135 -224t-48 -263.5z" />
<glyph unicode="P" horiz-adv-x="1218" d="M190 0v1434h472q134 0 238.5 -61.5t159 -163.5t54.5 -224q0 -91 -32 -172t-90 -142t-143.5 -96.5t-186.5 -35.5h-431v-539h-41zM231 580h431q122 0 217 56t144.5 147.5t49.5 201.5q0 171 -113.5 289.5t-297.5 118.5h-431v-813z" />
<glyph unicode="Q" horiz-adv-x="1662" d="M98 717q0 145 51 278.5t143 237t232.5 165.5t306.5 62t306.5 -62t232.5 -165.5t143.5 -237t51.5 -278.5q0 -160 -54.5 -296.5t-148 -231t-219.5 -151t-269 -63.5l138 -194l-37 -19l-146 211q-166 1 -306 63t-231.5 165.5t-142.5 237t-51 278.5zM139 717q0 -137 48 -263.5 t135 -224.5t219.5 -156.5t289.5 -58.5t289.5 58.5t219.5 156.5t135.5 224.5t48.5 263.5t-48.5 263.5t-135.5 224t-219.5 156t-289.5 58.5t-289.5 -58.5t-219.5 -156t-135 -224t-48 -263.5z" />
<glyph unicode="R" horiz-adv-x="1218" d="M190 0v1434h472q134 0 238.5 -61.5t159 -163.5t54.5 -224q0 -165 -100 -288t-266 -152l356 -545h-51l-351 539h-471v-539h-41zM231 580h431q122 0 217 56t144.5 147.5t49.5 201.5q0 171 -113.5 289.5t-297.5 118.5h-431v-813z" />
<glyph unicode="S" horiz-adv-x="1177" d="M106 420h41q0 -178 123.5 -292t337.5 -114q202 0 316 88t114 246q0 54 -12.5 99t-32 77t-52.5 59t-64 44.5t-77.5 33t-82.5 24.5t-88 20q-182 39 -258 72q-148 66 -188 202q-17 57 -17 129q0 154 115.5 253t336.5 99q201 0 315 -108t120 -303h-41q-6 175 -109.5 272.5 t-284.5 97.5q-201 0 -306 -87.5t-105 -223.5q0 -57 13.5 -103.5t32 -79t56 -60t66 -43.5t83 -32.5t87 -24t96.5 -20.5q55 -11 93.5 -20.5t88.5 -26.5t83.5 -36.5t68.5 -49.5t56 -66t34.5 -86.5t13.5 -111.5q0 -178 -124.5 -276.5t-346.5 -98.5q-233 0 -367.5 125.5 t-134.5 321.5z" />
<glyph unicode="T" horiz-adv-x="952" d="M37 1393v41h878v-41h-419v-1393h-41v1393h-418z" />
<glyph unicode="U" horiz-adv-x="1218" d="M160 420v1014h41v-1014q0 -169 112.5 -287.5t292.5 -118.5q122 0 217.5 56t145 148t49.5 202v1014h41v-1014q0 -121 -55 -222.5t-159.5 -163t-238.5 -61.5q-131 0 -234 61.5t-157.5 163t-54.5 222.5z" />
<glyph unicode="V" horiz-adv-x="1114" d="M16 1434h43l498 -1381l498 1381h43l-518 -1434h-43z" />
<glyph unicode="W" horiz-adv-x="1857" d="M14 1434h43l453 -1379l397 1379h43l398 -1379l452 1379h43l-475 -1434h-43l-397 1374l-396 -1374h-43z" />
<glyph unicode="X" horiz-adv-x="1036" d="M29 0l465 717l-465 717h47l442 -682l443 682h47l-467 -717l467 -717h-47l-443 680l-442 -680h-47z" />
<glyph unicode="Y" horiz-adv-x="1079" d="M12 1434h49l531 -832l436 832h45l-751 -1434h-48l295 559z" />
<glyph unicode="Z" horiz-adv-x="1079" d="M37 0l954 1393h-911v41h989l-954 -1393h995v-41h-1073z" />
<glyph unicode="_" horiz-adv-x="602" d="M61 563v41h480v-41h-480z" />
<glyph unicode="a" d="M98 428q0 122 54.5 224t158 163.5t234.5 61.5q151 0 258 -75.5t153 -201.5v258h41v-858h-41v256q-46 -124 -153 -199t-258 -75q-131 0 -234.5 61t-158 162.5t-54.5 222.5zM139 428q0 -169 113 -287t293 -118q122 0 217 56t144.5 147.5t49.5 201.5q0 171 -113.5 289.5 t-297.5 118.5q-180 0 -293 -119t-113 -289z" />
<glyph unicode="b" d="M190 0v1434h41v-834q46 126 153.5 201.5t258.5 75.5q131 0 234.5 -61.5t158 -163.5t54.5 -224q0 -121 -54.5 -222.5t-158 -162.5t-234.5 -61q-151 0 -258.5 75t-153.5 199v-256h-41zM231 428q0 -169 114 -287t298 -118q180 0 293 118t113 287q0 170 -113 289t-293 119 q-184 0 -298 -118.5t-114 -289.5z" />
<glyph unicode="c" horiz-adv-x="1052" d="M109 430q0 88 28.5 168.5t80.5 143.5t134.5 100t182.5 37q97 0 173 -28t121.5 -76.5t71 -106t31.5 -123.5h-41q-6 58 -29 108.5t-64 93t-108.5 67t-154.5 24.5q-120 0 -209.5 -58.5t-132.5 -150t-43 -199.5q0 -109 42.5 -200t132 -149t210.5 -58q159 0 248.5 75 t111.5 197h43q-22 -141 -122.5 -227t-280.5 -86q-101 0 -183.5 37t-134.5 100t-80 142.5t-28 168.5z" />
<glyph unicode="d" d="M98 428q0 122 54.5 224t158 163.5t234.5 61.5q151 0 258 -75.5t153 -201.5v834h41v-1434h-41v256q-46 -124 -153 -199t-258 -75q-131 0 -234.5 61t-158 162.5t-54.5 222.5zM139 428q0 -169 113 -287t293 -118q122 0 217 56t144.5 147.5t49.5 201.5q0 171 -113.5 289.5 t-297.5 118.5q-180 0 -293 -119t-113 -289z" />
<glyph unicode="e" horiz-adv-x="1038" d="M109 430q0 197 111.5 322t307.5 125q166 0 281 -110.5t115 -272.5q0 -31 -2 -54h-772q0 -84 24 -158t70.5 -132.5t121.5 -92.5t169 -34q125 0 213.5 60t117.5 150h43q-29 -107 -128.5 -179t-245.5 -72q-104 0 -187 37t-134 100t-78 142.5t-27 168.5zM152 481h731 q0 155 -104 256t-253 101q-163 0 -261.5 -98.5t-112.5 -258.5z" />
<glyph unicode="f" horiz-adv-x="634" d="M51 817v41h217v289q0 92 20 154.5t56.5 92.5t73.5 41t84 11q68 0 125 -23v-41q-53 23 -125 23q-30 0 -55 -5t-51.5 -21.5t-44.5 -44t-30 -75.5t-12 -112v-289h318v-41h-318v-817h-41v817h-217z" />
<glyph unicode="g" d="M98 430q0 121 54.5 222.5t158 163t234.5 61.5q151 0 258 -75.5t153 -199.5v256h41v-952q0 -268 -116 -384t-342 -116q-114 0 -198.5 35t-134 97.5t-74 139t-28.5 170.5h41q3 -84 25 -153t66 -126.5t121 -89.5t182 -32q206 0 311.5 106.5t105.5 352.5v352 q-46 -126 -153 -201t-258 -75q-131 0 -234.5 61t-158 163t-54.5 224zM139 430q0 -170 113 -288.5t293 -118.5q184 0 297.5 118t113.5 289q0 110 -49.5 202t-144.5 148t-217 56q-180 0 -293 -118.5t-113 -287.5z" />
<glyph unicode="h" horiz-adv-x="1134" d="M190 0v1434h41v-838q35 117 134.5 199t242.5 82q166 0 258 -99q99 -99 99 -282v-496h-41v492q0 153 -82.5 248.5t-237.5 95.5q-72 0 -134 -25t-105 -66.5t-74 -94t-45.5 -108t-14.5 -108.5v-434h-41z" />
<glyph unicode="i" horiz-adv-x="421" d="M190 0v858h41v-858h-41zM190 1116v211h41v-211h-41z" />
<glyph unicode="j" horiz-adv-x="421" d="M-98 -512q56 -33 129 -33q74 0 116.5 57.5t42.5 157.5v1188h41v-1188q0 -118 -54 -187t-146 -69q-71 0 -129 27v47zM190 1116v211h41v-211h-41z" />
<glyph unicode="k" horiz-adv-x="839" d="M190 0v1434h41v-1006l504 430h68l-504 -430l504 -428h-68l-504 428v-428h-41z" />
<glyph unicode="l" horiz-adv-x="421" d="M190 0v1434h41v-1434h-41z" />
<glyph unicode="m" horiz-adv-x="1611" d="M190 0v858h41v-264q16 114 98.5 198.5t205.5 84.5q125 0 201 -70.5t89 -212.5q19 113 104.5 198t211.5 85q44 0 82.5 -8t79 -30.5t69.5 -59t47.5 -98t18.5 -142.5v-539h-41v532q0 84 -21 145t-58.5 94.5t-81 49t-95.5 15.5q-75 0 -135 -36.5t-96 -95.5t-55 -128.5 t-19 -141.5v-434h-41v483q0 86 -15.5 151t-39.5 102.5t-59.5 61t-70 31t-75.5 7.5q-73 0 -132.5 -36.5t-96 -95t-56 -128.5t-19.5 -142v-434h-41z" />
<glyph unicode="n" horiz-adv-x="1134" d="M190 0v858h41v-262q35 117 134.5 199t242.5 82q166 0 258 -99q99 -99 99 -282v-496h-41v492q0 153 -82.5 248.5t-237.5 95.5q-72 0 -134 -25t-105 -66.5t-74 -94t-45.5 -108t-14.5 -108.5v-434h-41z" />
<glyph unicode="o" horiz-adv-x="1095" d="M98 428q0 122 54.5 224t158 163.5t234.5 61.5q134 0 238.5 -61.5t159 -163.5t54.5 -224q0 -91 -32 -172t-90 -142t-143.5 -96.5t-186.5 -35.5q-131 0 -234.5 61t-158 162.5t-54.5 222.5zM139 428q0 -169 113 -287t293 -118q122 0 217 56t144.5 147.5t49.5 201.5 q0 171 -113.5 289.5t-297.5 118.5q-180 0 -293 -119t-113 -289z" />
<glyph unicode="p" d="M190 -575v1433h41v-256q46 124 153.5 199.5t258.5 75.5q131 0 234.5 -61.5t158 -163t54.5 -222.5q0 -122 -54.5 -224t-158 -163t-234.5 -61q-151 0 -258.5 75t-153.5 201v-833h-41zM231 430q0 -171 114 -289t298 -118q180 0 293 118.5t113 288.5q0 169 -113 287.5 t-293 118.5q-122 0 -217.5 -56t-145 -148t-49.5 -202z" />
<glyph unicode="q" d="M98 430q0 121 54.5 222.5t158 163t234.5 61.5q151 0 258 -75.5t153 -199.5v256h41v-1433h-41v833q-46 -126 -153 -201t-258 -75q-131 0 -234.5 61t-158 163t-54.5 224zM139 430q0 -170 113 -288.5t293 -118.5q184 0 297.5 118t113.5 289q0 110 -49.5 202t-144.5 148 t-217 56q-180 0 -293 -118.5t-113 -287.5z" />
<glyph unicode="r" horiz-adv-x="669" d="M190 0v858h41v-274q47 147 141.5 217.5t211.5 70.5q54 0 86 -14v-39q-44 12 -86 12q-73 0 -133.5 -28t-100 -73t-67.5 -103t-40 -116.5t-12 -115.5v-395h-41z" />
<glyph unicode="s" horiz-adv-x="913" d="M106 291h41q0 -72 25.5 -125t71 -83.5t103 -45t126.5 -14.5q137 0 209 52.5t72 143.5q0 31 -9.5 57t-23.5 43.5t-39 32t-46.5 23t-57.5 16.5t-60 12t-65 9q-44 6 -70 10.5t-64.5 13.5t-61 19t-49.5 27t-41 37.5t-24 50.5t-10 67q0 114 83 177t226 63q153 0 245.5 -72 t92.5 -209h-41q0 117 -80.5 178.5t-212.5 61.5q-124 0 -198 -53.5t-74 -147.5q0 -39 14.5 -67.5t36 -46.5t63 -31.5t77 -20.5t96.5 -16q37 -6 56 -9t53 -9.5t52.5 -12.5t46 -16t43 -21.5t33.5 -28t27.5 -36t16 -44.5t6.5 -55q0 -113 -81.5 -176t-238.5 -63q-79 0 -144 17 t-116.5 52t-80 96t-28.5 144z" />
<glyph unicode="t" horiz-adv-x="626" d="M41 817v41h205v385h41v-385h307v-41h-307v-534q0 -80 15.5 -133t46 -78t61.5 -34t75 -9q60 0 142 12v-41q-70 -12 -142 -12q-43 0 -75 5.5t-64.5 23.5t-53 49.5t-33.5 86t-13 130.5v534h-205z" />
<glyph unicode="u" horiz-adv-x="1128" d="M164 362v496h41v-491q0 -153 82 -248.5t237 -95.5q89 0 162.5 38t118 98t68.5 129t24 136v434h41v-858h-41v262q-35 -117 -134.5 -198.5t-242.5 -81.5q-167 0 -258 98q-98 98 -98 282z" />
<glyph unicode="v" horiz-adv-x="913" d="M29 858h45l381 -805l383 805h47l-410 -858h-41z" />
<glyph unicode="w" horiz-adv-x="1382" d="M33 858h43l305 -809l289 809h43l286 -809l308 809h43l-330 -858h-41l-289 805l-287 -805h-41z" />
<glyph unicode="x" horiz-adv-x="862" d="M78 0l328 428l-328 430h49l303 -397l305 397h49l-329 -430l329 -428h-49l-305 397l-303 -397h-49z" />
<glyph unicode="y" horiz-adv-x="1140" d="M176 -160h41q6 -202 85 -297.5t269 -95.5q179 0 263 98t84 328v389q-35 -118 -131.5 -199t-239.5 -81q-98 0 -158 20t-113 70q-49 47 -70.5 120t-21.5 191v475h41v-471q0 -184 72.5 -274t253.5 -90q89 0 161.5 38t116 98t66.5 128.5t23 136.5v434h40v-985 q0 -253 -93 -360t-294 -107q-213 0 -301 104.5t-94 329.5z" />
<glyph unicode="z" horiz-adv-x="866" d="M61 0l635 817h-604v41h692l-637 -817h644v-41h-730z" />
<glyph unicode="&#xad;" horiz-adv-x="602" d="M61 563v41h480v-41h-480z" />
<glyph unicode="&#xc0;" horiz-adv-x="1067" d="M20 0l492 1434h43l492 -1434h-43l-115 332h-713l-113 -332h-43zM190 373h684l-342 1011z" />
<glyph unicode="&#xc1;" horiz-adv-x="1067" d="M20 0l492 1434h43l492 -1434h-43l-115 332h-713l-113 -332h-43zM190 373h684l-342 1011z" />
<glyph unicode="&#xc2;" horiz-adv-x="1067" d="M20 0l492 1434h43l492 -1434h-43l-115 332h-713l-113 -332h-43zM190 373h684l-342 1011z" />
<glyph unicode="&#xc3;" horiz-adv-x="1067" d="M20 0l492 1434h43l492 -1434h-43l-115 332h-713l-113 -332h-43zM190 373h684l-342 1011z" />
<glyph unicode="&#xc4;" horiz-adv-x="1067" d="M20 0l492 1434h43l492 -1434h-43l-115 332h-713l-113 -332h-43zM190 373h684l-342 1011z" />
<glyph unicode="&#xc5;" horiz-adv-x="1067" d="M20 0l492 1434h43l492 -1434h-43l-115 332h-713l-113 -332h-43zM190 373h684l-342 1011z" />
<glyph unicode="&#xc6;" horiz-adv-x="2172" d="M20 0l492 1434h43l492 -1434h-43l-115 332h-713l-113 -332h-43zM190 373h684l-342 1011zM1257 0v1434h736v-41h-695v-660h695v-41h-695v-651h695v-41h-736z" />
<glyph unicode="&#xc7;" horiz-adv-x="1585" d="M98 719q0 145 50 278.5t140.5 236.5t227.5 164.5t299 61.5q275 0 447 -129t229 -340h-41q-56 194 -217 311t-418 117q-154 0 -283 -58t-214 -155.5t-132 -223.5t-47 -263q0 -113 30.5 -218t91 -193t144.5 -154t197 -103t242 -37q212 0 372.5 101.5t229.5 267.5h45 q-71 -182 -244.5 -296t-402.5 -114q-170 0 -312 60.5t-236 163t-146 237.5t-52 285z" />
<glyph unicode="&#xc8;" horiz-adv-x="1105" d="M190 0v1434h736v-41h-695v-660h695v-41h-695v-651h695v-41h-736z" />
<glyph unicode="&#xc9;" horiz-adv-x="1105" d="M190 0v1434h736v-41h-695v-660h695v-41h-695v-651h695v-41h-736z" />
<glyph unicode="&#xca;" horiz-adv-x="1105" d="M190 0v1434h736v-41h-695v-660h695v-41h-695v-651h695v-41h-736z" />
<glyph unicode="&#xcb;" horiz-adv-x="1105" d="M190 0v1434h736v-41h-695v-660h695v-41h-695v-651h695v-41h-736z" />
<glyph unicode="&#xcc;" horiz-adv-x="421" d="M190 0v1434h41v-1434h-41z" />
<glyph unicode="&#xcd;" horiz-adv-x="421" d="M190 0v1434h41v-1434h-41z" />
<glyph unicode="&#xce;" horiz-adv-x="421" d="M190 0v1434h41v-1434h-41z" />
<glyph unicode="&#xcf;" horiz-adv-x="421" d="M190 0v1434h41v-1434h-41z" />
<glyph unicode="&#xd0;" horiz-adv-x="1404" d="M190 0v1434h373q172 0 315.5 -61t235.5 -162t142.5 -229t50.5 -265t-50.5 -265t-142.5 -229t-235.5 -162t-315.5 -61h-373zM231 41h332q163 0 298.5 57.5t222.5 152.5t134.5 215.5t47.5 250.5t-47.5 250.5t-134.5 215.5t-222.5 152.5t-298.5 57.5h-332v-1352z" />
<glyph unicode="&#xd1;" horiz-adv-x="1349" d="M190 0v1434h50l878 -1371v1371h41v-1434h-49l-879 1370v-1370h-41z" />
<glyph unicode="&#xd2;" horiz-adv-x="1662" d="M98 717q0 145 51 278.5t143 237t232.5 165.5t306.5 62t306.5 -62t232.5 -165.5t143.5 -237t51.5 -278.5t-51.5 -279t-143.5 -237.5t-232.5 -165.5t-306.5 -62q-134 0 -251.5 40.5t-204.5 111t-150 164t-95 203t-32 225.5zM139 717q0 -137 48 -263.5t135 -224.5 t219.5 -156.5t289.5 -58.5t289.5 58.5t219.5 156.5t135.5 224.5t48.5 263.5t-48.5 263.5t-135.5 224t-219.5 156t-289.5 58.5t-289.5 -58.5t-219.5 -156t-135 -224t-48 -263.5z" />
<glyph unicode="&#xd3;" horiz-adv-x="1662" d="M98 717q0 145 51 278.5t143 237t232.5 165.5t306.5 62t306.5 -62t232.5 -165.5t143.5 -237t51.5 -278.5t-51.5 -279t-143.5 -237.5t-232.5 -165.5t-306.5 -62q-134 0 -251.5 40.5t-204.5 111t-150 164t-95 203t-32 225.5zM139 717q0 -137 48 -263.5t135 -224.5 t219.5 -156.5t289.5 -58.5t289.5 58.5t219.5 156.5t135.5 224.5t48.5 263.5t-48.5 263.5t-135.5 224t-219.5 156t-289.5 58.5t-289.5 -58.5t-219.5 -156t-135 -224t-48 -263.5z" />
<glyph unicode="&#xd4;" horiz-adv-x="1662" d="M98 717q0 145 51 278.5t143 237t232.5 165.5t306.5 62t306.5 -62t232.5 -165.5t143.5 -237t51.5 -278.5t-51.5 -279t-143.5 -237.5t-232.5 -165.5t-306.5 -62q-134 0 -251.5 40.5t-204.5 111t-150 164t-95 203t-32 225.5zM139 717q0 -137 48 -263.5t135 -224.5 t219.5 -156.5t289.5 -58.5t289.5 58.5t219.5 156.5t135.5 224.5t48.5 263.5t-48.5 263.5t-135.5 224t-219.5 156t-289.5 58.5t-289.5 -58.5t-219.5 -156t-135 -224t-48 -263.5z" />
<glyph unicode="&#xd5;" horiz-adv-x="1662" d="M98 717q0 145 51 278.5t143 237t232.5 165.5t306.5 62t306.5 -62t232.5 -165.5t143.5 -237t51.5 -278.5t-51.5 -279t-143.5 -237.5t-232.5 -165.5t-306.5 -62q-134 0 -251.5 40.5t-204.5 111t-150 164t-95 203t-32 225.5zM139 717q0 -137 48 -263.5t135 -224.5 t219.5 -156.5t289.5 -58.5t289.5 58.5t219.5 156.5t135.5 224.5t48.5 263.5t-48.5 263.5t-135.5 224t-219.5 156t-289.5 58.5t-289.5 -58.5t-219.5 -156t-135 -224t-48 -263.5z" />
<glyph unicode="&#xd6;" horiz-adv-x="1662" d="M98 717q0 145 51 278.5t143 237t232.5 165.5t306.5 62t306.5 -62t232.5 -165.5t143.5 -237t51.5 -278.5t-51.5 -279t-143.5 -237.5t-232.5 -165.5t-306.5 -62q-134 0 -251.5 40.5t-204.5 111t-150 164t-95 203t-32 225.5zM139 717q0 -137 48 -263.5t135 -224.5 t219.5 -156.5t289.5 -58.5t289.5 58.5t219.5 156.5t135.5 224.5t48.5 263.5t-48.5 263.5t-135.5 224t-219.5 156t-289.5 58.5t-289.5 -58.5t-219.5 -156t-135 -224t-48 -263.5z" />
<glyph unicode="&#xd8;" horiz-adv-x="1662" d="M98 717q0 145 51 278.5t143 237t232.5 165.5t306.5 62t306.5 -62t232.5 -165.5t143.5 -237t51.5 -278.5t-51.5 -279t-143.5 -237.5t-232.5 -165.5t-306.5 -62q-134 0 -251.5 40.5t-204.5 111t-150 164t-95 203t-32 225.5zM139 717q0 -137 48 -263.5t135 -224.5 t219.5 -156.5t289.5 -58.5t289.5 58.5t219.5 156.5t135.5 224.5t48.5 263.5t-48.5 263.5t-135.5 224t-219.5 156t-289.5 58.5t-289.5 -58.5t-219.5 -156t-135 -224t-48 -263.5z" />
<glyph unicode="&#xd9;" horiz-adv-x="1218" d="M160 420v1014h41v-1014q0 -169 112.5 -287.5t292.5 -118.5q122 0 217.5 56t145 148t49.5 202v1014h41v-1014q0 -121 -55 -222.5t-159.5 -163t-238.5 -61.5q-131 0 -234 61.5t-157.5 163t-54.5 222.5z" />
<glyph unicode="&#xda;" horiz-adv-x="1218" d="M160 420v1014h41v-1014q0 -169 112.5 -287.5t292.5 -118.5q122 0 217.5 56t145 148t49.5 202v1014h41v-1014q0 -121 -55 -222.5t-159.5 -163t-238.5 -61.5q-131 0 -234 61.5t-157.5 163t-54.5 222.5z" />
<glyph unicode="&#xdb;" horiz-adv-x="1218" d="M160 420v1014h41v-1014q0 -169 112.5 -287.5t292.5 -118.5q122 0 217.5 56t145 148t49.5 202v1014h41v-1014q0 -121 -55 -222.5t-159.5 -163t-238.5 -61.5q-131 0 -234 61.5t-157.5 163t-54.5 222.5z" />
<glyph unicode="&#xdc;" horiz-adv-x="1218" d="M160 420v1014h41v-1014q0 -169 112.5 -287.5t292.5 -118.5q122 0 217.5 56t145 148t49.5 202v1014h41v-1014q0 -121 -55 -222.5t-159.5 -163t-238.5 -61.5q-131 0 -234 61.5t-157.5 163t-54.5 222.5z" />
<glyph unicode="&#xdd;" horiz-adv-x="1079" d="M12 1434h49l531 -832l436 832h45l-751 -1434h-48l295 559z" />
<glyph unicode="&#xde;" horiz-adv-x="1218" d="M190 0v1434h472q134 0 238.5 -61.5t159 -163.5t54.5 -224q0 -91 -32 -172t-90 -142t-143.5 -96.5t-186.5 -35.5h-431v-539h-41zM231 580h431q122 0 217 56t144.5 147.5t49.5 201.5q0 171 -113.5 289.5t-297.5 118.5h-431v-813z" />
<glyph unicode="&#xdf;" horiz-adv-x="1826" d="M106 291h41q0 -72 25.5 -125t71 -83.5t103 -45t126.5 -14.5q137 0 209 52.5t72 143.5q0 31 -9.5 57t-23.5 43.5t-39 32t-46.5 23t-57.5 16.5t-60 12t-65 9q-44 6 -70 10.5t-64.5 13.5t-61 19t-49.5 27t-41 37.5t-24 50.5t-10 67q0 114 83 177t226 63q153 0 245.5 -72 t92.5 -209h-41q0 117 -80.5 178.5t-212.5 61.5q-124 0 -198 -53.5t-74 -147.5q0 -39 14.5 -67.5t36 -46.5t63 -31.5t77 -20.5t96.5 -16q37 -6 56 -9t53 -9.5t52.5 -12.5t46 -16t43 -21.5t33.5 -28t27.5 -36t16 -44.5t6.5 -55q0 -113 -81.5 -176t-238.5 -63q-79 0 -144 17 t-116.5 52t-80 96t-28.5 144zM1020 291h41q0 -72 25.5 -125t71 -83.5t102.5 -45t126 -14.5q137 0 209 52.5t72 143.5q0 31 -9.5 57t-23.5 43.5t-39 32t-46.5 23t-57.5 16.5t-60 12t-65 9q-44 6 -70 10.5t-64 13.5t-61 19t-49.5 27t-40.5 37.5t-24 50.5t-10 67q0 114 83 177 t226 63q153 0 245.5 -72t92.5 -209h-41q0 117 -80.5 178.5t-212.5 61.5q-125 0 -199 -53.5t-74 -147.5q0 -39 14.5 -67.5t36 -46.5t63 -31.5t77 -20.5t96.5 -16q37 -6 56 -9t53 -9.5t52.5 -12.5t46 -16t43 -21.5t33.5 -28t27.5 -36t16 -44.5t6.5 -55q0 -113 -81 -176 t-238 -63q-79 0 -144 17t-116.5 52t-80 96t-28.5 144z" />
<glyph unicode="&#xe0;" d="M98 428q0 122 54.5 224t158 163.5t234.5 61.5q151 0 258 -75.5t153 -201.5v258h41v-858h-41v256q-46 -124 -153 -199t-258 -75q-131 0 -234.5 61t-158 162.5t-54.5 222.5zM139 428q0 -169 113 -287t293 -118q122 0 217 56t144.5 147.5t49.5 201.5q0 171 -113.5 289.5 t-297.5 118.5q-180 0 -293 -119t-113 -289z" />
<glyph unicode="&#xe1;" d="M98 428q0 122 54.5 224t158 163.5t234.5 61.5q151 0 258 -75.5t153 -201.5v258h41v-858h-41v256q-46 -124 -153 -199t-258 -75q-131 0 -234.5 61t-158 162.5t-54.5 222.5zM139 428q0 -169 113 -287t293 -118q122 0 217 56t144.5 147.5t49.5 201.5q0 171 -113.5 289.5 t-297.5 118.5q-180 0 -293 -119t-113 -289z" />
<glyph unicode="&#xe2;" d="M98 428q0 122 54.5 224t158 163.5t234.5 61.5q151 0 258 -75.5t153 -201.5v258h41v-858h-41v256q-46 -124 -153 -199t-258 -75q-131 0 -234.5 61t-158 162.5t-54.5 222.5zM139 428q0 -169 113 -287t293 -118q122 0 217 56t144.5 147.5t49.5 201.5q0 171 -113.5 289.5 t-297.5 118.5q-180 0 -293 -119t-113 -289z" />
<glyph unicode="&#xe3;" d="M98 428q0 122 54.5 224t158 163.5t234.5 61.5q151 0 258 -75.5t153 -201.5v258h41v-858h-41v256q-46 -124 -153 -199t-258 -75q-131 0 -234.5 61t-158 162.5t-54.5 222.5zM139 428q0 -169 113 -287t293 -118q122 0 217 56t144.5 147.5t49.5 201.5q0 171 -113.5 289.5 t-297.5 118.5q-180 0 -293 -119t-113 -289z" />
<glyph unicode="&#xe4;" d="M98 428q0 122 54.5 224t158 163.5t234.5 61.5q151 0 258 -75.5t153 -201.5v258h41v-858h-41v256q-46 -124 -153 -199t-258 -75q-131 0 -234.5 61t-158 162.5t-54.5 222.5zM139 428q0 -169 113 -287t293 -118q122 0 217 56t144.5 147.5t49.5 201.5q0 171 -113.5 289.5 t-297.5 118.5q-180 0 -293 -119t-113 -289z" />
<glyph unicode="&#xe5;" d="M98 428q0 122 54.5 224t158 163.5t234.5 61.5q151 0 258 -75.5t153 -201.5v258h41v-858h-41v256q-46 -124 -153 -199t-258 -75q-131 0 -234.5 61t-158 162.5t-54.5 222.5zM139 428q0 -169 113 -287t293 -118q122 0 217 56t144.5 147.5t49.5 201.5q0 171 -113.5 289.5 t-297.5 118.5q-180 0 -293 -119t-113 -289z" />
<glyph unicode="&#xe6;" horiz-adv-x="2226" d="M98 428q0 122 54.5 224t158 163.5t234.5 61.5q151 0 258 -75.5t153 -201.5v258h41v-858h-41v256q-46 -124 -153 -199t-258 -75q-131 0 -234.5 61t-158 162.5t-54.5 222.5zM139 428q0 -169 113 -287t293 -118q122 0 217 56t144.5 147.5t49.5 201.5q0 171 -113.5 289.5 t-297.5 118.5q-180 0 -293 -119t-113 -289zM1296 430q0 197 112 322t308 125q166 0 280.5 -110.5t114.5 -272.5q0 -31 -2 -54h-772q0 -84 24 -158t70.5 -132.5t121.5 -92.5t169 -34q125 0 214 60t118 150h43q-29 -107 -129 -179t-246 -72q-104 0 -187 37t-134 100t-78 142.5 t-27 168.5zM1339 481h732q0 155 -104 256t-253 101q-163 0 -262 -98.5t-113 -258.5z" />
<glyph unicode="&#xe7;" horiz-adv-x="1052" d="M109 430q0 88 28.5 168.5t80.5 143.5t134.5 100t182.5 37q97 0 173 -28t121.5 -76.5t71 -106t31.5 -123.5h-41q-6 58 -29 108.5t-64 93t-108.5 67t-154.5 24.5q-120 0 -209.5 -58.5t-132.5 -150t-43 -199.5q0 -109 42.5 -200t132 -149t210.5 -58q159 0 248.5 75 t111.5 197h43q-22 -141 -122.5 -227t-280.5 -86q-101 0 -183.5 37t-134.5 100t-80 142.5t-28 168.5z" />
<glyph unicode="&#xe8;" horiz-adv-x="1038" d="M109 430q0 197 111.5 322t307.5 125q166 0 281 -110.5t115 -272.5q0 -31 -2 -54h-772q0 -84 24 -158t70.5 -132.5t121.5 -92.5t169 -34q125 0 213.5 60t117.5 150h43q-29 -107 -128.5 -179t-245.5 -72q-104 0 -187 37t-134 100t-78 142.5t-27 168.5zM152 481h731 q0 155 -104 256t-253 101q-163 0 -261.5 -98.5t-112.5 -258.5z" />
<glyph unicode="&#xe9;" horiz-adv-x="1038" d="M109 430q0 197 111.5 322t307.5 125q166 0 281 -110.5t115 -272.5q0 -31 -2 -54h-772q0 -84 24 -158t70.5 -132.5t121.5 -92.5t169 -34q125 0 213.5 60t117.5 150h43q-29 -107 -128.5 -179t-245.5 -72q-104 0 -187 37t-134 100t-78 142.5t-27 168.5zM152 481h731 q0 155 -104 256t-253 101q-163 0 -261.5 -98.5t-112.5 -258.5z" />
<glyph unicode="&#xea;" horiz-adv-x="1038" d="M109 430q0 197 111.5 322t307.5 125q166 0 281 -110.5t115 -272.5q0 -31 -2 -54h-772q0 -84 24 -158t70.5 -132.5t121.5 -92.5t169 -34q125 0 213.5 60t117.5 150h43q-29 -107 -128.5 -179t-245.5 -72q-104 0 -187 37t-134 100t-78 142.5t-27 168.5zM152 481h731 q0 155 -104 256t-253 101q-163 0 -261.5 -98.5t-112.5 -258.5z" />
<glyph unicode="&#xeb;" horiz-adv-x="1038" d="M109 430q0 197 111.5 322t307.5 125q166 0 281 -110.5t115 -272.5q0 -31 -2 -54h-772q0 -84 24 -158t70.5 -132.5t121.5 -92.5t169 -34q125 0 213.5 60t117.5 150h43q-29 -107 -128.5 -179t-245.5 -72q-104 0 -187 37t-134 100t-78 142.5t-27 168.5zM152 481h731 q0 155 -104 256t-253 101q-163 0 -261.5 -98.5t-112.5 -258.5z" />
<glyph unicode="&#xec;" horiz-adv-x="421" d="M190 0v858h41v-858h-41zM190 1116v211h41v-211h-41z" />
<glyph unicode="&#xed;" horiz-adv-x="421" d="M190 0v858h41v-858h-41zM190 1116v211h41v-211h-41z" />
<glyph unicode="&#xee;" horiz-adv-x="421" d="M190 0v858h41v-858h-41zM190 1116v211h41v-211h-41z" />
<glyph unicode="&#xef;" horiz-adv-x="421" d="M190 0v858h41v-858h-41zM190 1116v211h41v-211h-41z" />
<glyph unicode="&#xf1;" horiz-adv-x="1134" d="M190 0v858h41v-262q35 117 134.5 199t242.5 82q166 0 258 -99q99 -99 99 -282v-496h-41v492q0 153 -82.5 248.5t-237.5 95.5q-72 0 -134 -25t-105 -66.5t-74 -94t-45.5 -108t-14.5 -108.5v-434h-41z" />
<glyph unicode="&#xf2;" horiz-adv-x="1095" d="M98 428q0 122 54.5 224t158 163.5t234.5 61.5q134 0 238.5 -61.5t159 -163.5t54.5 -224q0 -91 -32 -172t-90 -142t-143.5 -96.5t-186.5 -35.5q-131 0 -234.5 61t-158 162.5t-54.5 222.5zM139 428q0 -169 113 -287t293 -118q122 0 217 56t144.5 147.5t49.5 201.5 q0 171 -113.5 289.5t-297.5 118.5q-180 0 -293 -119t-113 -289z" />
<glyph unicode="&#xf3;" horiz-adv-x="1095" d="M98 428q0 122 54.5 224t158 163.5t234.5 61.5q134 0 238.5 -61.5t159 -163.5t54.5 -224q0 -91 -32 -172t-90 -142t-143.5 -96.5t-186.5 -35.5q-131 0 -234.5 61t-158 162.5t-54.5 222.5zM139 428q0 -169 113 -287t293 -118q122 0 217 56t144.5 147.5t49.5 201.5 q0 171 -113.5 289.5t-297.5 118.5q-180 0 -293 -119t-113 -289z" />
<glyph unicode="&#xf4;" horiz-adv-x="1095" d="M98 428q0 122 54.5 224t158 163.5t234.5 61.5q134 0 238.5 -61.5t159 -163.5t54.5 -224q0 -91 -32 -172t-90 -142t-143.5 -96.5t-186.5 -35.5q-131 0 -234.5 61t-158 162.5t-54.5 222.5zM139 428q0 -169 113 -287t293 -118q122 0 217 56t144.5 147.5t49.5 201.5 q0 171 -113.5 289.5t-297.5 118.5q-180 0 -293 -119t-113 -289z" />
<glyph unicode="&#xf5;" horiz-adv-x="1095" d="M98 428q0 122 54.5 224t158 163.5t234.5 61.5q134 0 238.5 -61.5t159 -163.5t54.5 -224q0 -91 -32 -172t-90 -142t-143.5 -96.5t-186.5 -35.5q-131 0 -234.5 61t-158 162.5t-54.5 222.5zM139 428q0 -169 113 -287t293 -118q122 0 217 56t144.5 147.5t49.5 201.5 q0 171 -113.5 289.5t-297.5 118.5q-180 0 -293 -119t-113 -289z" />
<glyph unicode="&#xf6;" horiz-adv-x="1095" d="M98 428q0 122 54.5 224t158 163.5t234.5 61.5q134 0 238.5 -61.5t159 -163.5t54.5 -224q0 -91 -32 -172t-90 -142t-143.5 -96.5t-186.5 -35.5q-131 0 -234.5 61t-158 162.5t-54.5 222.5zM139 428q0 -169 113 -287t293 -118q122 0 217 56t144.5 147.5t49.5 201.5 q0 171 -113.5 289.5t-297.5 118.5q-180 0 -293 -119t-113 -289z" />
<glyph unicode="&#xf8;" horiz-adv-x="1095" d="M98 428q0 122 54.5 224t158 163.5t234.5 61.5q134 0 238.5 -61.5t159 -163.5t54.5 -224q0 -91 -32 -172t-90 -142t-143.5 -96.5t-186.5 -35.5q-131 0 -234.5 61t-158 162.5t-54.5 222.5zM139 428q0 -169 113 -287t293 -118q122 0 217 56t144.5 147.5t49.5 201.5 q0 171 -113.5 289.5t-297.5 118.5q-180 0 -293 -119t-113 -289z" />
<glyph unicode="&#xf9;" horiz-adv-x="1128" d="M164 362v496h41v-491q0 -153 82 -248.5t237 -95.5q89 0 162.5 38t118 98t68.5 129t24 136v434h41v-858h-41v262q-35 -117 -134.5 -198.5t-242.5 -81.5q-167 0 -258 98q-98 98 -98 282z" />
<glyph unicode="&#xfa;" horiz-adv-x="1128" d="M164 362v496h41v-491q0 -153 82 -248.5t237 -95.5q89 0 162.5 38t118 98t68.5 129t24 136v434h41v-858h-41v262q-35 -117 -134.5 -198.5t-242.5 -81.5q-167 0 -258 98q-98 98 -98 282z" />
<glyph unicode="&#xfb;" horiz-adv-x="1128" d="M164 362v496h41v-491q0 -153 82 -248.5t237 -95.5q89 0 162.5 38t118 98t68.5 129t24 136v434h41v-858h-41v262q-35 -117 -134.5 -198.5t-242.5 -81.5q-167 0 -258 98q-98 98 -98 282z" />
<glyph unicode="&#xfc;" horiz-adv-x="1128" d="M164 362v496h41v-491q0 -153 82 -248.5t237 -95.5q89 0 162.5 38t118 98t68.5 129t24 136v434h41v-858h-41v262q-35 -117 -134.5 -198.5t-242.5 -81.5q-167 0 -258 98q-98 98 -98 282z" />
<glyph unicode="&#xfd;" horiz-adv-x="1140" d="M176 -160h41q6 -202 85 -297.5t269 -95.5q179 0 263 98t84 328v389q-35 -118 -131.5 -199t-239.5 -81q-98 0 -158 20t-113 70q-49 47 -70.5 120t-21.5 191v475h41v-471q0 -184 72.5 -274t253.5 -90q89 0 161.5 38t116 98t66.5 128.5t23 136.5v434h40v-985 q0 -253 -93 -360t-294 -107q-213 0 -301 104.5t-94 329.5z" />
<glyph unicode="&#xfe;" d="M190 -575v1433h41v-256q46 124 153.5 199.5t258.5 75.5q131 0 234.5 -61.5t158 -163t54.5 -222.5q0 -122 -54.5 -224t-158 -163t-234.5 -61q-151 0 -258.5 75t-153.5 201v-833h-41zM231 430q0 -171 114 -289t298 -118q180 0 293 118.5t113 288.5q0 169 -113 287.5 t-293 118.5q-122 0 -217.5 -56t-145 -148t-49.5 -202z" />
<glyph unicode="&#xff;" horiz-adv-x="1140" d="M176 -160h41q6 -202 85 -297.5t269 -95.5q179 0 263 98t84 328v389q-35 -118 -131.5 -199t-239.5 -81q-98 0 -158 20t-113 70q-49 47 -70.5 120t-21.5 191v475h41v-471q0 -184 72.5 -274t253.5 -90q89 0 161.5 38t116 98t66.5 128.5t23 136.5v434h40v-985 q0 -253 -93 -360t-294 -107q-213 0 -301 104.5t-94 329.5z" />
<glyph unicode="&#x152;" horiz-adv-x="2768" d="M98 717q0 145 51 278.5t143 237t232.5 165.5t306.5 62t306.5 -62t232.5 -165.5t143.5 -237t51.5 -278.5t-51.5 -279t-143.5 -237.5t-232.5 -165.5t-306.5 -62q-134 0 -251.5 40.5t-204.5 111t-150 164t-95 203t-32 225.5zM139 717q0 -137 48 -263.5t135 -224.5 t219.5 -156.5t289.5 -58.5t289.5 58.5t219.5 156.5t135.5 224.5t48.5 263.5t-48.5 263.5t-135.5 224t-219.5 156t-289.5 58.5t-289.5 -58.5t-219.5 -156t-135 -224t-48 -263.5zM1853 0v1434h736v-41h-695v-660h695v-41h-695v-651h695v-41h-736z" />
<glyph unicode="&#x153;" horiz-adv-x="2134" d="M98 428q0 122 54.5 224t158 163.5t234.5 61.5q134 0 238.5 -61.5t159 -163.5t54.5 -224q0 -91 -32 -172t-90 -142t-143.5 -96.5t-186.5 -35.5q-131 0 -234.5 61t-158 162.5t-54.5 222.5zM139 428q0 -169 113 -287t293 -118q122 0 217 56t144.5 147.5t49.5 201.5 q0 171 -113.5 289.5t-297.5 118.5q-180 0 -293 -119t-113 -289zM1204 430q0 197 112 322t308 125q166 0 280.5 -110.5t114.5 -272.5q0 -31 -2 -54h-772q0 -84 24 -158t70.5 -132.5t121.5 -92.5t169 -34q125 0 214 60t118 150h43q-29 -107 -129 -179t-246 -72q-104 0 -187 37 t-134 100t-78 142.5t-27 168.5zM1247 481h731q0 156 -103.5 256.5t-252.5 100.5q-163 0 -262 -98.5t-113 -258.5z" />
<glyph unicode="&#x178;" horiz-adv-x="1079" d="M12 1434h49l531 -832l436 832h45l-751 -1434h-48l295 559z" />
<glyph unicode="&#x2000;" horiz-adv-x="730" />
<glyph unicode="&#x2001;" horiz-adv-x="1460" />
<glyph unicode="&#x2002;" horiz-adv-x="730" />
<glyph unicode="&#x2003;" horiz-adv-x="1460" />
<glyph unicode="&#x2004;" horiz-adv-x="486" />
<glyph unicode="&#x2005;" horiz-adv-x="365" />
<glyph unicode="&#x2006;" horiz-adv-x="243" />
<glyph unicode="&#x2007;" horiz-adv-x="243" />
<glyph unicode="&#x2008;" horiz-adv-x="182" />
<glyph unicode="&#x2009;" horiz-adv-x="292" />
<glyph unicode="&#x200a;" horiz-adv-x="81" />
<glyph unicode="&#x2010;" horiz-adv-x="602" d="M61 563v41h480v-41h-480z" />
<glyph unicode="&#x2011;" horiz-adv-x="602" d="M61 563v41h480v-41h-480z" />
<glyph unicode="&#x2012;" horiz-adv-x="602" d="M61 563v41h480v-41h-480z" />
<glyph unicode="&#x2013;" horiz-adv-x="602" d="M61 563v41h480v-41h-480z" />
<glyph unicode="&#x2014;" horiz-adv-x="602" d="M61 563v41h480v-41h-480z" />
<glyph unicode="&#x202f;" horiz-adv-x="292" />
<glyph unicode="&#x205f;" horiz-adv-x="365" />
<glyph unicode="&#x25fc;" horiz-adv-x="860" d="M0 0v860h860v-860h-860z" />
<glyph unicode="&#xfb01;" horiz-adv-x="1056" d="M51 817v41h217v289q0 92 20 154.5t56.5 92.5t73.5 41t84 11q68 0 125 -23v-41q-53 23 -125 23q-30 0 -55 -5t-51.5 -21.5t-44.5 -44t-30 -75.5t-12 -112v-289h318v-41h-318v-817h-41v817h-217zM825 0v858h41v-858h-41zM825 1116v211h41v-211h-41z" />
</font>
</defs>
</svg>
