<?xml version="1.0" encoding="utf-8"?>
<!-- Generator: Adobe Illustrator 22.1.0, SVG Export Plug-In . SVG Version: 6.00 Build 0)  -->
<svg version="1.1" id="Layer_1" xmlns="http://www.w3.org/2000/svg" xmlns:xlink="http://www.w3.org/1999/xlink" x="0px" y="0px"
	 viewBox="0 0 498.1 1727.1" style="enable-background:new 0 0 498.1 1727.1;" xml:space="preserve">
<style type="text/css">
	.st0{clip-path:url(#SVGID_2_);fill:#FFFFFF;}
</style>
<g>
	<defs>
		<rect id="SVGID_1_" x="0" y="0" width="498.1" height="1727.1"/>
	</defs>
	<clipPath id="SVGID_2_">
		<use xlink:href="#SVGID_1_"  style="overflow:visible;"/>
	</clipPath>
	<path class="st0" d="M490.8,248v-60.2l-260.3-31.9l260.3-35.5V61.6L7.3,0v61.6l284.9,34.1L7.3,128.3v52.9L282,213.9L7.3,248v61.6
		L490.8,248z M395.9,395.7c27.5,0,39.1,8.7,39.1,28.3c0,20.3-11.6,28.3-39.1,28.3H102.2c-27.6,0-39.2-8.7-39.2-28.3
		c0-20.3,11.6-28.3,39.2-28.3H395.9z M129.8,328.2c-57.3,0-69.6,2.2-90.6,15.2C15.2,359.4,0,389.9,0,423.9
		c0,34.1,15.2,64.5,39.1,80.5c21,13.1,33.4,15.2,90.6,15.2h237.8c57.3,0,69.6-2.2,90.6-15.2c24.7-15.9,39.9-46.4,39.9-80.5
		s-15.2-64.5-39.9-80.5c-21-13.1-32.6-15.2-90.6-15.2H129.8z M269,620.2h221.8v-67.4H7.3v67.4h198.6v55.1H7.3v67.4h483.6v-67.4H269
		V620.2z M350.9,963.7c11.6,0.7,16,0.7,26.1,0.7c42,0,62.4-5.1,84.1-21c25.4-18.8,37-44.2,37-80.5c0-63.1-36.2-98.6-100.8-98.6
		c-41.3,0-90.6,17.4-136.3,48.6L211.7,847c-67.4,45-74,47.9-103.7,47.9c-29,0-45-10.2-45-28.3c0-15.2,10.9-26.1,30.5-28.3
		c10.1-1.4,18.9-2.2,43.5-2.2l-6.5-66c-39.9,0-42.1,0-60.2,3.6C26.1,783.2,0,816.5,0,862.2c0,60.9,40.6,99.3,104.4,99.3
		c42.8,0,76.1-13.8,138.5-55.1l49.3-33.3c44.2-33.4,63.1-41.3,95-41.3c31.2,0,47.9,10.1,47.9,30.5c0,26.1-16,34.8-66,34.8h-21
		L350.9,963.7z M7.3,1061.9v67.4h284.9L7.3,1218.5v58h483.6v-67.4H237.1l253.7-79.8v-67.4H7.3z M7.3,1434.4v67.4h361
		c57.3,0,69.6-2.2,90.6-15.2c23.9-15.9,39.1-46.4,39.1-80.5c0-34.1-15.2-64.5-39.1-80.5c-21-13.1-33.4-15.2-90.6-15.2H7.3v67.4
		h388.6c27.5,0,39.1,8,39.1,28.3c0,19.6-11.6,28.3-39.1,28.3H7.3z M245.1,1535.7v97.2h57.3v-29.7h69.6c31.2,0,38.4,0.7,46.4,4.3
		c10.9,4.3,17.4,13.8,17.4,24.7c0,10.2-5.1,18.1-15.2,23.2c-8,3.6-13.1,4.3-48.6,4.3H116c-42.1,0-52.9-5.8-52.9-27.5
		c0-23.9,14.5-30.5,68.2-30.5c10.9,0,17.4,0,33.4,1.5v-67.4c-18.9-1.4-28.3-1.4-38.4-1.4c-84.1,0-126.1,32.6-126.1,97.2
		c0,63.8,39.1,95.7,116,95.7h255.9c43.5,0,63.1-2.9,83.4-13.8c26.1-13.8,42.8-40.6,42.8-68.9c0-23.2-13-43.5-40.6-62.3l33.3-10.2
		v-36.2H245.1z"/>
</g>
</svg>
