<?xml version="1.0" encoding="utf-8"?>
<!-- Generator: Adobe Illustrator 22.1.0, SVG Export Plug-In . SVG Version: 6.00 Build 0)  -->
<svg version="1.1" id="Layer_1" xmlns="http://www.w3.org/2000/svg" xmlns:xlink="http://www.w3.org/1999/xlink" x="0px" y="0px"
	 viewBox="0 0 1727.1 498.1" style="enable-background:new 0 0 1727.1 498.1;" xml:space="preserve">
<style type="text/css">
	.st0{clip-path:url(#SVGID_2_);fill:#FFFFFF;}
</style>
<g>
	<defs>
		<rect id="SVGID_1_" width="1727.1" height="498.1"/>
	</defs>
	<clipPath id="SVGID_2_">
		<use xlink:href="#SVGID_1_"  style="overflow:visible;"/>
	</clipPath>
	<path class="st0" d="M1479.1,490.8h60.2l31.9-260.3l35.5,260.3h58.7l61.6-483.6h-61.6l-34.1,284.9L1598.8,7.3h-52.9L1513.2,282
		L1479.1,7.3h-61.6L1479.1,490.8z M1331.4,395.9c0,27.6-8.7,39.1-28.3,39.1c-20.3,0-28.3-11.6-28.3-39.1V102.2
		c0-27.6,8.7-39.2,28.3-39.2c20.3,0,28.3,11.6,28.3,39.2V395.9z M1398.9,129.8c0-57.3-2.2-69.6-15.2-90.6
		C1367.7,15.2,1337.2,0,1303.2,0s-64.5,15.2-80.5,39.1c-13.1,21-15.2,33.4-15.2,90.6v237.8c0,57.3,2.2,69.6,15.2,90.6
		c15.9,24.6,46.4,39.9,80.5,39.9s64.5-15.2,80.5-39.9c13.1-21,15.2-32.6,15.2-90.6V129.8z M1106.9,269v221.8h67.4V7.3h-67.4v198.6
		h-55.1V7.3h-67.4v483.6h67.4V269H1106.9z M763.4,350.9c-0.7,11.6-0.7,15.9-0.7,26.1c0,42.1,5.1,62.4,21,84.1
		c18.8,25.4,44.2,37,80.5,37c63.1,0,98.6-36.2,98.6-100.8c0-41.3-17.4-90.6-48.6-136.3l-34.1-49.3c-45-67.4-47.9-74-47.9-103.7
		c0-29,10.2-45,28.3-45c15.2,0,26.1,10.9,28.3,30.5c1.4,10.1,2.2,18.9,2.2,43.5l66-6.5c0-39.9,0-42.1-3.6-60.2
		C943.9,26.1,910.6,0,864.9,0c-60.9,0-99.3,40.6-99.3,104.4c0,42.8,13.8,76.1,55.1,138.5l33.3,49.3c33.4,44.2,41.3,63.1,41.3,95
		c0,31.2-10.1,47.8-30.5,47.8c-26.1,0-34.8-15.9-34.8-66v-21L763.4,350.9z M665.2,7.3h-67.4v284.9L508.6,7.3h-58v483.6H518V237.1
		l79.8,253.7h67.4V7.3z M292.7,7.3h-67.4v361c0,57.3,2.2,69.6,15.2,90.6c16,23.9,46.4,39.1,80.5,39.1s64.5-15.2,80.5-39.1
		c13-21,15.2-33.4,15.2-90.6V7.3h-67.4v388.6c0,27.6-8,39.1-28.3,39.1c-19.6,0-28.3-11.6-28.3-39.1V7.3z M191.4,245.1H94.2v57.3H124
		v69.6c0,31.2-0.7,38.4-4.3,46.4c-4.3,10.9-13.8,17.4-24.7,17.4c-10.1,0-18.1-5.1-23.2-15.2c-3.6-8-4.3-13-4.3-48.6V116
		c0-42.1,5.8-52.9,27.5-52.9c23.9,0,30.5,14.5,30.5,68.2c0,10.9,0,17.4-1.5,33.4h67.4c1.4-18.9,1.4-28.3,1.4-38.4
		C192.8,42.1,160.2,0,95.7,0C31.9,0,0,39.2,0,116v255.9c0,43.5,2.9,63.1,13.8,83.4c13.8,26.1,40.6,42.8,68.9,42.8
		c23.2,0,43.5-13,62.3-40.6l10.2,33.4h36.2V245.1z"/>
</g>
</svg>
